<?xml version="1.0" encoding="utf-8"?><svg viewBox="0 0 100 100" xmlns="http://www.w3.org/2000/svg" width="200px" height="200px" xmlns:xlink="http://www.w3.org/1999/xlink" style="width:100%;height:100%;background-size:initial;background-repeat-y:initial;background-repeat-x:initial;background-position-y:initial;background-position-x:initial;background-origin:initial;background-image:initial;background-color:rgb(241, 242, 243);background-clip:initial;background-attachment:initial;animation-play-state:paused" ><g class="ldl-scale" style="transform-origin:50% 50%;transform:rotate(0deg) scale(0.8, 0.8);animation-play-state:paused" ><path fill="#e0e0e0" d="M92.5 18.525V15.53c0-1.95-1.586-3.53-3.542-3.53H11.041A3.535 3.535 0 0 0 7.5 15.53V50h85V18.525z" style="fill:rgb(147, 219, 233);animation-play-state:paused" ></path>
<path fill="#666" d="M70.405 84.791v-.065c0-1.141-.661-2.136-1.649-2.705a3.776 3.776 0 0 0-1.888-.504h-4.893l-3.253-10.21h30.236a3.537 3.537 0 0 0 3.542-3.53V50h-85v17.777c0 1.95 1.586 3.53 3.542 3.53H41.07l-3.346 10.21h-4.592c-.696 0-1.34.189-1.888.504-.988.569-1.649 1.564-1.649 2.705v.065c0 1.772 1.583 3.209 3.537 3.209h33.736c1.953 0 3.537-1.437 3.537-3.209z" style="fill:rgb(104, 156, 197);animation-play-state:paused" ></path>
<metadata xmlns:d="https://loading.io/stock/" style="animation-play-state:paused" ><d:name style="animation-play-state:paused" >computer</d:name>


<d:tags style="animation-play-state:paused" >computer,screen,monitor,desktop,lcd,viewport,percent,ratio</d:tags>


<d:license style="animation-play-state:paused" >by</d:license>


<d:slug style="animation-play-state:paused" >ybirwl</d:slug></metadata></g><!-- generated by https://loading.io/ --></svg>