<?xml version="1.0" encoding="utf-8"?>
<!-- Generator: Adobe Illustrator 23.0.0, SVG Export Plug-In . SVG Version: 6.00 Build 0)  -->
<svg version="1.1" id="图层_1" xmlns="http://www.w3.org/2000/svg" xmlns:xlink="http://www.w3.org/1999/xlink" x="0px" y="0px"
	 viewBox="0 0 842 201" enable-background="new 0 0 842 201" xml:space="preserve">
<text transform="matrix(0.9407 0 0 1 162.1943 76.9375)"><tspan x="0" y="0" fill="#1A7A70" font-family="'TimesNewRomanPS-BoldMT'" font-size="66.701px">MAJOR</tspan><tspan x="244.527" y="0" font-family="'TimesNewRomanPS-BoldMT'" font-size="66.701px"> </tspan><tspan x="261.202" y="0" fill="#4CA0D9" font-family="'TimesNewRomanPS-BoldMT'" font-size="66.701px">Computational </tspan><tspan x="0" y="80.041" fill="#4CA0D9" font-family="'TimesNewRomanPS-BoldMT'" font-size="66.701px">Biology </tspan><tspan x="231.629" y="80.041" font-family="'TimesNewRomanPS-BoldMT'" font-size="49.1445px">Research Lab</tspan></text>
<path fill="#3D4499" d="M134.165,58.575c2.886-3.636,5.549-7.652,7.953-12.124L104.52,33.958l-4.419,13.298L134.165,58.575z"/>
<path fill="#10A83A" d="M64.897,153.201L60.478,166.5l37.512,12.465c0.721-5.033,0.955-9.854,0.786-14.506L64.897,153.201z"/>
<path fill="#E6501D" d="M90.112,77.317l14.961,4.971c5.226-2.922,10.245-6.12,14.958-9.796l-25.5-8.473L90.112,77.317z"/>
<path fill="#C1D72C" d="M70.301,136.937l25.497,8.472c-1.576-5.767-3.683-11.332-6.121-16.801l-14.957-4.97L70.301,136.937z"/>
<path fill="#C1481E" d="M31.105,142.091c-2.895,3.55-5.565,7.472-7.972,11.849l37.39,12.424l4.338-13.056L31.105,142.091z"/>
<path fill="#36449A" d="M74.338,124.789l-14.836-4.93c-5.131,2.635-10.05,5.532-14.657,8.886l25.376,8.432L74.338,124.789
	L74.338,124.789z"/>
<path fill="#45B143" d="M94.531,64.019l-25.378-8.433c1.576,5.766,3.682,11.332,6.121,16.801l14.839,4.931L94.531,64.019
	L94.531,64.019z"/>
<path fill="#E5E52C" d="M100.101,47.256l4.419-13.298L67.043,21.505c-0.751,5.021-1.021,9.833-0.885,14.473L100.101,47.256z"/>
<path fill="#602C8C" d="M91.539,103.511c-2.483,1.154-4.963,2.285-7.429,3.409c-1.485,0.677-2.966,1.353-4.441,2.03
	c3.588,6.585,7.047,13.123,10.018,19.804c2.444,5.496,4.555,11.09,6.133,16.887c1.665,6.115,2.736,12.457,2.975,19.149
	c0.167,4.676-0.071,9.523-0.798,14.584c-0.768,5.352-2.079,10.941-4.033,16.82l11.107,3.691c6.68-20.102,7.531-39.154,2.602-58.244
	C104.123,127.896,97.973,115.456,91.539,103.511z"/>
<path fill="#673F95" d="M86.385,93.317c-4.14-6.997-8.132-13.931-11.562-20.939c-2.821-5.764-5.259-11.579-7.085-17.522
	c-1.98-6.446-3.239-13.041-3.478-19.886c-0.162-4.628,0.145-9.37,1.007-14.256c0.886-5.022,2.355-10.195,4.518-15.555L57,0
	c-7.65,18.954-8.596,37.664-2.892,57.2c4.107,14.064,11.204,27.195,18.628,39.875c2.855-0.802,5.706-1.582,8.541-2.357
	C82.986,94.251,84.689,93.785,86.385,93.317z"/>
<path fill="#864195" d="M41.731,132.038c4.944-4.006,10.198-7.503,15.665-10.705c6.645-3.893,13.602-7.356,20.693-10.778
	c1.535-0.741,3.076-1.48,4.621-2.221c2.566-1.23,5.146-2.468,7.73-3.73c12.803-6.253,25.685-13.113,37.248-22.734
	C143.75,68.507,155.037,51.54,162.194,30l-11.45-3.805c-2.024,6.091-4.372,11.568-6.998,16.533
	c-2.554,4.83-5.373,9.174-8.417,13.114c-4.503,5.826-9.499,10.772-14.861,15.117c-4.944,4.006-10.198,7.503-15.664,10.706
	c-6.646,3.894-13.604,7.357-20.697,10.78c-1.535,0.741-3.076,1.48-4.621,2.221c-2.566,1.23-5.146,2.468-7.73,3.73
	c-12.803,6.253-25.685,13.113-37.248,22.734C18.444,134.493,7.157,151.461,0,173l11.45,3.805c2.093-6.3,4.532-11.945,7.268-17.044
	c2.587-4.822,5.44-9.152,8.52-13.08C31.644,141.06,36.514,136.265,41.731,132.038z"/>
<polyline fill="#FFFFFF" points="834.38,149.66 831.867,152.433 835.074,154.59 837.5,151.817 834.38,149.66 "/>
<polyline fill="#FFFFFF" points="792.872,92.616 785.159,91.016 783.34,97.796 791.052,99.395 792.872,92.616 "/>
<polyline fill="#FFFFFF" points="772.594,190.409 779.093,195.339 784.639,189.562 778.14,184.632 772.594,190.409 "/>
<polyline fill="#FFFFFF" points="795.472,183.014 795.125,177.006 786.459,177.391 786.806,185.094 788.712,185.017 
	787.846,188.021 794.952,189.562 796.685,183.245 795.472,183.014 "/>
<polyline fill="#FFFFFF" points="769.388,119.809 778.4,120.875 779.613,112.954 770.601,111.887 769.388,119.809 "/>
<polyline fill="#FFFFFF" points="744.604,193.028 747.29,197.65 752.577,195.262 749.804,190.563 744.604,193.028 "/>
<polyline fill="#FFFFFF" points="829.788,129.401 831.867,124.24 826.061,122.314 823.982,127.552 829.788,129.401 "/>
<polyline fill="#FFFFFF" points="815.836,96.044 811.59,92.388 807.43,96.12 811.676,99.776 815.836,96.044 "/>
<polyline fill="#FFFFFF" points="780.393,151.74 773.201,152.433 773.981,158.826 781.173,158.133 780.393,151.74 "/>
<polyline fill="#FFFFFF" points="817.396,165.759 821.988,168.609 825.195,164.527 820.602,161.677 817.396,165.759 "/>
<polyline fill="#FFFFFF" points="795.558,197.65 800.324,198.112 800.844,193.875 796.078,193.413 795.558,197.65 "/>
<polyline fill="#FFFFFF" points="766.528,91.55 762.369,88.884 759.336,92.54 763.495,95.206 766.528,91.55 "/>
<polyline fill="#FFFFFF" points="818.089,175.85 818.522,179.702 822.855,179.317 822.422,175.465 818.089,175.85 "/>
<polyline fill="#FFFFFF" points="808.903,183.322 809.163,186.788 813.063,186.48 812.803,183.014 808.903,183.322 "/>
<polyline fill="#FFFFFF" points="736.025,193.567 739.058,195.955 741.831,193.259 738.798,190.871 736.025,193.567 "/>
<polyline fill="#FFFFFF" points="766.788,196.186 768.261,199.344 771.901,198.035 770.428,194.8 766.788,196.186 "/>
<polyline fill="#FFFFFF" points="822.162,146.81 824.935,147.58 825.801,145.115 823.028,144.345 822.162,146.81 "/>
<polyline fill="#FFFFFF" points="829.354,183.784 831.347,186.557 834.467,184.786 832.474,182.013 829.354,183.784 "/>
<polyline fill="#FFFFFF" points="834.034,98.786 831.261,97.491 829.701,99.928 832.56,101.3 834.034,98.786 "/>
<polyline fill="#FFFFFF" points="779.007,126.936 781.866,125.318 780.133,122.776 777.187,124.317 779.007,126.936 "/>
<polyline fill="#FFFFFF" points="804.57,167.993 801.971,164.989 798.591,167.3 801.191,170.304 804.57,167.993 "/>
<polyline fill="#FFFFFF" points="809.423,124.471 808.643,126.936 811.416,127.706 812.196,125.241 809.423,124.471 "/>
<path fill="#FFFFFF" d="M733.512,178.623l6.153-1.772l-1.906-5.084l2.946-2.08l-10.139-11.323l-0.867,0.616l-0.693-4.93l2.946,2.696
	l5.113-4.468l-1.213,6.548l2.86,0.462l-0.607,0.385l4.073,5.315l0.953-0.539l-0.087,7.318l8.839,0.077v-2.773l7.972-0.924
	l-1.127-7.549l-8.492,1.001l0.347,2.388l-6.586-0.077l4.16-2.542l-1.213-1.618l1.733-9.013l-8.319-1.232l1.906-1.618l-8.579-7.857
	l5.719,2.08l1.733,4.699l6.153-1.772l-1.993-5.469l-1.473,0.462l3.9-8.319l-2.686-1.001l10.485-9.013l0.607,0.385l4.159-5.161
	l-2.426-1.541l5.286-1.001l-1.646-7.01l-7.886,1.464l1.04,4.468l-0.26-0.154l-2.6,3.235l-6.673-6.162l4.679-7.164l-8.232-4.237
	l-0.953,1.464l-7.193-4.622l0.867,0.231l1.473-5.084l-5.719-1.31l-0.953,3.389l-0.347-0.231l-5.459,6.779l-2.253-8.242l-6.932,1.541
	l-0.693-2.773l-5.026,1.001l0.347,1.541l-5.633-1.772l-1.733,4.468l-0.693-4.468l-16.118,2.08l0.347,1.849
	c-0.52,0.231-1.127,0.539-1.646,0.77c-0.173,0.077-0.26,0.154-0.433,0.231c-1.906,1.001-3.726,2.157-5.373,3.389
	c-2.6,1.926-5.633,5.7-7.799,10.63c-0.52,1.31-1.04,2.696-1.473,4.083c-1.127,3.929-1.646,8.319-0.953,13.018v0.154
	c0.173,1.001,0.347,2.08,0.607,3.158c0.347,1.695,0.693,3.389,0.78,4.93v2.234c-0.26,3.158-1.213,5.469-2.253,7.241
	c-1.213,2.003-2.6,3.389-3.38,4.853c-0.607,4.622,5.893,3.543,7.366,5.854c0.433,0.693-0.607,1.849-0.953,2.85
	c-0.087,0.308-0.173,0.693-0.087,0.924c0.433,1.772,2.686,1.541,3.553,2.234c0.173,0.154,0.26,0.308,0.347,0.462
	c0.347,0.924-1.733,2.157-1.473,2.927c0.433,1.31,3.466,2.003,3.64,2.696c0.173,0.539,0.173,1.001,0.173,1.541
	c-0.087,1.001-0.347,2.003-0.087,2.927c0.173,0.693,0.52,1.31,0.78,1.772c1.3,1.849,3.553,2.234,6.499,2.311h1.646
	c0.607,0,1.213-0.077,1.906-0.154c2.513-0.385,5.459-1.31,8.146-2.234c1.127-0.385,2.253-0.847,3.206-1.232
	c1.387-0.539,2.513-1.001,3.293-1.31l0.433,0.693l1.993-0.924c1.127,0.231,1.82,1.232,2.166,2.619l-0.78,2.08l0.953,0.308
	c-0.087,1.464-0.347,3.158-0.78,4.93c-0.433,1.695-0.953,3.543-1.646,5.392c-1.906,5.238-4.593,10.553-7.106,13.711l13.518-2.927
	l-0.347-1.232l3.033,2.311l4.246-4.468l0.26,0.616l3.553-1.387l0.693,4.314l12.219-1.618l-1.213-7.395l1.04-0.385l-4.593-9.321
	l4.073-2.927L733.512,178.623"/>
<polyline fill="#FFFFFF" points="709.941,116.922 712.714,120.08 718.694,115.998 720.947,126.089 720.86,126.089 719.127,135.024 
	716.701,130.171 716.961,130.171 718.607,121.775 709.162,120.311 707.515,128.477 707.688,119.387 704.655,119.31 709.941,116.922 
	"/>
<polyline fill="#FFFFFF" points="735.938,117.372 735.159,114.02 738.711,109.755 742.611,111.735 735.938,117.372 "/>
<polyline fill="#FFFFFF" points="692.957,142.496 690.704,140.801 695.643,135.64 692.957,142.496 "/>
<polyline fill="#FFFFFF" points="690.79,129.102 690.704,132.225 689.491,131.311 683.511,137.481 680.565,136.567 687.064,132.225 
	685.331,130.168 690.79,129.102 "/>
<polyline fill="#FFFFFF" points="689.144,156.371 689.751,156.828 690.53,159.723 689.577,159.723 689.144,156.371 "/>
<polyline fill="#FFFFFF" points="702.836,149.044 702.316,152.51 701.189,148.504 702.836,149.044 "/>
<polyline fill="#FFFFFF" points="708.035,148.196 708.208,147.657 708.295,148.196 708.035,148.196 "/>
<polyline fill="#FFFFFF" points="707.428,129.17 707.428,128.862 708.035,128.939 707.428,129.17 "/>
<polyline fill="#FFFFFF" points="695.21,158.056 701.796,156.67 701.622,157.671 695.21,160.752 695.21,158.056 "/>
<polyline fill="#FFFFFF" points="715.401,161.908 715.834,164.758 711.501,163.448 710.201,161.291 715.401,161.908 "/>
<polyline fill="#FFFFFF" points="721.813,171.845 723.633,173.924 720.514,175.157 721.813,171.845 "/>
<polyline fill="#FFFFFF" points="716.787,154.051 724.153,152.741 723.287,148.967 727.446,152.818 716.787,154.051 "/>
<polyline fill="#FFFFFF" points="722.767,146.733 721.987,143.112 723.98,145.115 727.533,142.265 724.326,139.107 721.553,141.341 
	721.294,140.262 710.461,142.188 710.895,141.187 719.994,137.643 731.172,139.415 731.172,139.261 731.432,139.338 
	722.767,146.733 "/>
<polyline fill="#FFFFFF" points="734.552,126.859 732.906,130.325 733.339,128.014 728.399,127.244 735.852,125.935 
	738.452,128.323 734.552,126.859 "/>
<polyline fill="#FFFFFF" points="727.793,114.249 723.633,115.01 717.047,107.546 718.78,107.165 718.087,108.003 727.793,114.249 
	"/>
<polyline fill="#FFFFFF" points="709.941,107.85 710.201,108.764 705.955,111.659 703.529,107.698 698.243,110.212 696.51,108.231 
	702.749,107.469 702.489,105.641 709.941,107.85 "/>
<polyline fill="#FFFFFF" points="681.518,163.379 682.385,163.303 682.211,169.93 681.345,170.006 681.518,163.379 "/>
<polyline fill="#FFFFFF" points="685.244,173.357 684.898,170.92 687.584,170.996 685.244,173.357 "/>
<polyline fill="#FFFFFF" points="696.336,167.608 695.123,170.766 693.13,169.226 694.95,169.226 695.123,162.062 698.936,168.378 
	696.336,167.608 "/>
<polyline fill="#FFFFFF" points="704.396,170.15 706.735,168.995 706.042,170.689 704.396,170.15 "/>
<polyline fill="#FFFFFF" points="712.715,178.161 710.461,179.008 710.981,177.622 712.715,178.161 "/>
<polyline fill="#FFFFFF" points="710.461,182.013 708.642,183.938 709.855,180.78 710.461,182.013 "/>
<polyline fill="#FFFFFF" points="804.484,117.143 806.824,114.401 803.704,112.344 801.364,115.087 804.484,117.143 "/>
<polyline fill="#FFFFFF" points="778.054,171.074 773.807,170.766 773.461,174.541 777.707,174.849 778.054,171.074 "/>
<polyline fill="#FFFFFF" points="745.297,187.636 749.37,187.251 748.937,183.63 744.864,184.015 745.297,187.636 "/>
<polyline fill="#FFFFFF" points="764.189,176.621 762.889,179.933 766.615,181.088 767.915,177.776 764.189,176.621 "/>
<polyline fill="#FFFFFF" points="775.194,184.324 779.18,182.167 776.754,178.623 772.854,180.78 775.194,184.324 "/>
<polyline fill="#FFFFFF" points="801.191,143.112 797.551,142.496 796.945,145.731 800.584,146.348 801.191,143.112 "/>
<path fill="#FFFFFF" d="M753.096,176.775l3.033-0.924l-1.127-2.619l-2.946,0.924L753.096,176.775 M809.51,170.304l3.38,0.539
	l0.607-3.004l-3.38-0.539L809.51,170.304 M796.598,166.298l-4.246-0.231l-0.173,2.08l-0.347-2.773l-8.492,0.924l1.04,7.549
	l8.492-0.924l-0.433-3.081l3.9,0.231L796.598,166.298 M765.488,175.542l2.513-1.387l-1.56-2.234l-2.513,1.387L765.488,175.542
	 M745.817,173.616l-3.986,0.616l0.693,3.543l3.986-0.616L745.817,173.616 M805.004,171.614l-5.459,5.623l6.413,4.853l5.286-5.7
	L805.004,171.614 M760.202,188.175l1.213-8.011l-9.012-1.078l-1.213,8.011l7.539,0.924l-3.12,4.93l5.633,2.85l3.206-5.007
	l-5.459-2.773L760.202,188.175 M778.314,161.985l-5.459,1.155l1.213,4.853l5.459-1.155L778.314,161.985 M796.165,146.733
	l-6.153,1.849l2.08,5.469l6.153-1.849L796.165,146.733 M800.238,147.734l3.553,2.311l2.513-3.158l-3.553-2.311L800.238,147.734
	 M813.15,153.82l-3.12-2.157l-2.34,2.773l3.12,2.157L813.15,153.82 M821.295,123.316l4.246,0.308l0.347-3.852l-4.246-0.231
	L821.295,123.316 M808.123,157.671l-4.073,0.385l0.433,3.62l4.073-0.385L808.123,157.671 M787.153,160.829l-3.813-1.155
	l-1.213,3.312l3.726,1.155L787.153,160.829 M823.722,152.125l-1.56-2.234l-2.513,1.387l1.56,2.157L823.722,152.125 M811.59,144.499
	l3.726,0.539l0.607-3.235l-3.64-0.539L811.59,144.499 M828.834,134.947l-2.946,0.924l1.04,2.696l2.946-0.924L828.834,134.947
	 M831.867,106.138l-3.293-0.616l-0.607,3.004l3.293,0.539L831.867,106.138 M821.729,108.603l-4.333-0.308l-0.26,3.774l4.246,0.308
	L821.729,108.603 M811.503,116.152l-1.56-2.157l-2.426,1.31l1.473,2.234L811.503,116.152 M819.649,124.856l-3.986,0.616l0.693,3.466
	l3.986-0.616L819.649,124.856 M747.204,135.794l6.759,4.93l5.546-5.931l-6.759-4.93L747.204,135.794 M779.007,114.919l4.593,5.7
	l6.413-4.006l-4.506-5.777L779.007,114.919 M785.073,139.107l-5.979-6.162l-6.933,5.238l5.979,6.162L785.073,139.107
	 M766.008,145.808l-2.86-1.695l6.153-1.155l-1.646-7.087l-7.886,1.541l1.3,5.315l-2.08-1.232l-4.939,6.162l7.019,4.391
	L766.008,145.808 M797.725,125.858l5.546-6.008l-6.759-4.93l-5.546,6.008L797.725,125.858 M772.161,109.45l6.499-4.006l-3.64-4.545
	l5.459-4.16l-5.979-6.162l-6.933,5.238l4.766,4.93l-4.766,2.927L772.161,109.45 M785.679,108.834l8.492-1.001l-1.213-7.549
	l-8.406,1.001L785.679,108.834 M745.384,92.349l-5.979-1.232l-1.473,5.315l5.979,1.31L745.384,92.349 M789.319,146.348l-7.019-4.314
	l-4.853,6.162l7.019,4.391L789.319,146.348 M813.756,103.288l-5.719-1.31l-1.473,5.084l5.719,1.31L813.756,103.288 M792.092,142.265
	l6.153-1.772l-2.08-5.469l-6.153,1.849L792.092,142.265 M791.052,161.445l5.373-2.619l-2.86-4.853l-5.459,2.619L791.052,161.445
	 M809.077,135.178l-5.893,0.308l0.347,5.315l5.979-0.385L809.077,135.178 M788.539,122.468l-4.246,5.161l4.073,2.542l-1.213,0.847
	l2.6,3.004l3.38-2.311l-1.646-1.926l2.86-3.62L788.539,122.468 M814.969,139.8l5.459-1.078l-1.213-4.853l-5.459,1.155L814.969,139.8
	 M772.768,162.832l-5.806-1.31l-1.56,5.238l5.893,1.31L772.768,162.832 M803.617,97.896l-3.206-3.158l-3.64,2.85l3.206,3.158
	L803.617,97.896 M800.411,131.866l5.113,0.539l0.607-4.622l-5.113-0.462L800.411,131.866 M761.156,119.541l-4.853,9.629
	l10.919,4.314l3.293-6.702l0.26,0.385l5.459-2.619l-2.946-4.853l-5.286,2.542L761.156,119.541 M764.015,98.05l-8.579-6.162
	l-6.846,7.626l8.579,6.162L764.015,98.05"/>
<path fill="#481210" d="M831.867,152.433l3.12,2.157L831.867,152.433 M834.38,149.66l-2.426,2.773L834.38,149.66 M834.38,149.66
	l0.693,0.462L834.38,149.66"/>
<path fill="#E63935" d="M834.38,149.66l-2.513,2.773l3.206,2.157l2.426-2.773l-2.426-1.695L834.38,149.66"/>
<path fill="none" d="M831.867,154.59h5.633v-4.93h-5.633V154.59"/>
<path fill="#4B2B13" d="M788.712,185.017l-1.127,0.077L788.712,185.017 M795.125,177.006l-8.752,0.308L795.125,177.006l0.26,5.931
	L795.125,177.006"/>
<path fill="#F18D24" d="M795.125,177.006l-8.666,0.385l0.347,7.703h0.78l1.127-0.077l0.867-3.312l5.893,1.31L795.125,177.006"/>
<path fill="none" d="M786.459,185.094h9.099v-8.088h-9.099V185.094"/>
<path fill="#28371B" d="M783.34,97.796l5.113,1.066L783.34,97.796 M784.206,94.444l-0.867,3.352L784.206,94.444 M792.872,92.616
	l-1.82,6.779L792.872,92.616 M785.159,91.016l7.712,1.6L785.159,91.016"/>
<path fill="#7DB641" d="M785.159,91.016l-0.953,3.428l-0.867,3.352l5.113,1.066l2.6,0.533l1.82-6.779L785.159,91.016"/>
<path fill="none" d="M783.34,99.395h9.532v-8.379h-9.532V99.395"/>
<path fill="#4E4721" d="M778.14,184.632l6.499,4.93l-5.546,5.777l-2.34-1.772l2.34,1.772l5.546-5.777L778.14,184.632"/>
<path fill="#F8E60C" d="M778.14,184.632l-5.546,5.777l4.159,3.158l2.34,1.772l5.546-5.777L778.14,184.632"/>
<path fill="none" d="M772.594,195.339h12.045v-10.707h-12.045V195.339"/>
<path fill="#062C17" d="M788.192,186.788l-0.347,1.232l7.106,1.541l-7.106-1.541L788.192,186.788 M796.685,183.245l-0.693,2.619
	L796.685,183.245"/>
<path fill="#0F9247" d="M795.472,183.014l0.087,1.772l-6.846,0.231l-0.52,1.772l-0.347,1.232l7.106,1.541l1.04-3.697l0.693-2.619
	L795.472,183.014"/>
<path fill="#11512C" d="M789.579,181.704l-0.867,3.312l6.846-0.231l-0.087-1.772L789.579,181.704"/>
<path fill="none" d="M787.846,189.562h8.839v-7.857h-8.839V189.562"/>
<path fill="#4B2B13" d="M769.388,119.809l3.033,0.381L769.388,119.809 M779.18,115.62l-0.78,5.332L779.18,115.62 M770.601,111.887
	l-1.213,7.922L770.601,111.887"/>
<path fill="#F18D24" d="M770.601,111.887l-1.213,7.922l2.946,0.381l6.066,0.686l0.78-5.256l0.433-2.666L770.601,111.887"/>
<path fill="none" d="M769.388,120.876h10.225v-8.988h-10.225V120.876"/>
<path fill="#481210" d="M792.612,170.997l0.26,2.003L792.612,170.997 M788.539,165.759l-5.199,0.539L788.539,165.759
	 M791.832,165.374l0.347,2.388L791.832,165.374"/>
<path fill="#E63935" d="M791.832,165.374l-3.293,0.385l-5.199,0.539l1.04,7.549l8.492-0.924l-0.26-1.926l-0.173-1.155h-0.347
	l0.087-1.695v-0.385L791.832,165.374"/>
<path fill="none" d="M783.34,173.847h9.532v-8.473h-9.532V173.847"/>
<path fill="#410D28" d="M750.757,196.109l-3.466,1.618L750.757,196.109 M744.604,193.028l2.686,4.699L744.604,193.028
	 M749.804,190.563l-2.6,1.232L749.804,190.563l1.82,3.158L749.804,190.563"/>
<path fill="#CC267D" d="M749.804,190.563l-2.6,1.232l-2.6,1.232l2.686,4.622l3.466-1.541l1.82-0.847l-0.867-1.464L749.804,190.563"
	/>
<path fill="none" d="M744.604,197.65h7.972v-7.087h-7.972V197.65"/>
<path fill="#470F2D" d="M823.982,127.552l5.806,1.849L823.982,127.552 M831.867,124.24l-2.08,5.161L831.867,124.24"/>
<path fill="#E52188" d="M826.061,122.314l-2.08,5.238l5.806,1.849l2.08-5.161L826.061,122.314"/>
<path fill="none" d="M823.982,129.401h7.886v-7.087h-7.886V129.401"/>
<path fill="#0F3632" d="M814.449,94.901l1.387,1.219l-2.08,1.904l2.08-1.904L814.449,94.901 M809.943,93.911l-2.513,2.285
	L809.943,93.911"/>
<path fill="#2EB29F" d="M811.59,92.388l-1.646,1.523l-2.513,2.209l4.246,3.656l2.08-1.828l2.08-1.904l-1.386-1.143L811.59,92.388"/>
<path fill="none" d="M807.43,99.776h8.406v-7.389h-8.406V99.776"/>
<path fill="#7DB641" d="M780.393,151.74l-7.193,0.693l0.78,6.394l7.193-0.693L780.393,151.74"/>
<path fill="none" d="M773.201,158.826h7.972v-7.087h-7.972V158.826"/>
<path fill="#28371B" d="M817.396,165.759l4.593,2.85L817.396,165.759 M824.675,165.143l-2.773,3.466L824.675,165.143
	 M820.602,161.677l-3.206,4.083L820.602,161.677l2.166,1.387L820.602,161.677"/>
<path fill="#7DB641" d="M820.602,161.677l-3.206,4.083l4.593,2.85l2.686-3.466l0.52-0.616l-2.34-1.464L820.602,161.677"/>
<path fill="none" d="M817.396,168.609h7.799v-6.933h-7.799V168.609"/>
<path fill="#4B2B13" d="M796.078,193.413l-0.52,4.237L796.078,193.413l4.766,0.462L796.078,193.413"/>
<path fill="#F18D24" d="M796.078,193.413l-0.52,4.237l4.766,0.462l0.52-4.237L796.078,193.413"/>
<path fill="none" d="M795.558,198.112h5.286v-4.699h-5.286V198.112"/>
<path fill="#062C17" d="M762.369,88.884l-3.033,3.656L762.369,88.884 M762.369,88.961l0.347,0.228L762.369,88.961"/>
<path fill="#0F9247" d="M762.369,88.884l-3.033,3.656l4.159,2.666l3.033-3.656l-3.9-2.514L762.369,88.884"/>
<path fill="none" d="M759.336,95.206h7.193v-6.322h-7.193V95.206"/>
<path fill="#4B2B13" d="M755.609,192.951l2.773,1.464L755.609,192.951 M764.448,190.794l-1.646,2.465L764.448,190.794"/>
<path fill="#F18D24" d="M758.729,188.021l-3.12,4.93l2.773,1.387l2.86,1.464l1.56-2.542l1.646-2.465l-5.459-2.773L758.729,188.021"
	/>
<path fill="none" d="M755.609,195.801h8.839v-7.857h-8.839V195.801"/>
<path fill="#460D0F" d="M822.855,179.317l-4.333,0.385L822.855,179.317 M822.422,175.465l0.433,3.852L822.422,175.465"/>
<path fill="#DD2429" d="M822.422,175.465l-4.333,0.385l0.433,3.852l4.333-0.385L822.422,175.465"/>
<path fill="none" d="M818.089,179.702h4.766v-4.237h-4.766V179.702"/>
<path fill="#410D28" d="M808.903,183.322l0.347,3.466l3.9-0.308l-3.9,0.308L808.903,183.322 M812.803,183.014l-1.3,0.077
	L812.803,183.014l0.087,1.155L812.803,183.014"/>
<path fill="#CC267D" d="M812.803,183.014l-1.3,0.154l-2.6,0.154l0.26,3.466l3.9-0.308l-0.173-2.311L812.803,183.014"/>
<path fill="none" d="M808.903,186.788h4.159v-3.774h-4.159V186.788"/>
<path fill="#4D3B1A" d="M792.265,132.251l-2.513,1.772l-1.473-1.695l1.473,1.695L792.265,132.251 M788.366,130.171l-1.213,0.847
	L788.366,130.171 M791.485,129.786l1.733,1.926L791.485,129.786"/>
<path fill="#F7BE20" d="M791.485,129.786l-1.3,1.541l-1.82-1.155l-1.213,0.847l1.127,1.31l1.473,1.695l2.513-1.772l0.867-0.539
	L791.485,129.786"/>
<path fill="none" d="M787.153,134.023h5.979v-5.315h-5.979V134.023"/>
<path fill="#4D3B1A" d="M741.831,193.259l-2.773,2.696L741.831,193.259 M740.271,192.027l1.56,1.31L740.271,192.027
	 M738.798,190.871l-2.686,2.619L738.798,190.871"/>
<path fill="#F7BE20" d="M738.798,190.871l-2.686,2.619l-0.087,0.077l3.033,2.388l2.773-2.696l-1.56-1.232L738.798,190.871"/>
<path fill="none" d="M736.025,195.955h5.806v-5.084h-5.806V195.955"/>
<path fill="#0B3347" d="M771.901,198.035l-3.64,1.387L771.901,198.035 M770.428,194.8l-3.64,1.387L770.428,194.8l0.433,1.001
	L770.428,194.8"/>
<path fill="#2BAAE2" d="M770.428,194.8l-3.64,1.387l1.473,3.158l3.64-1.31l-1.04-2.311L770.428,194.8"/>
<path fill="none" d="M766.788,199.344h5.113V194.8h-5.113V199.344"/>
<path fill="#7DB641" d="M823.028,144.345l-0.867,2.465l2.773,0.77l0.867-2.465L823.028,144.345"/>
<path fill="none" d="M822.162,147.58h3.64v-3.235h-3.64V147.58"/>
<path fill="#28371B" d="M832.474,182.013l1.993,2.773l-3.12,1.772l3.12-1.772L832.474,182.013"/>
<path fill="#7DB641" d="M832.474,182.013l-3.12,1.772l1.993,2.773l3.12-1.772L832.474,182.013"/>
<path fill="none" d="M829.354,186.557h5.113v-4.545h-5.113V186.557"/>
<path fill="#0B3347" d="M831.954,100.995l0.52,0.305L831.954,100.995 M831.261,97.491l-0.173,0.305L831.261,97.491 M831.261,97.491
	l1.82,0.838L831.261,97.491"/>
<path fill="#2BAAE2" d="M831.261,97.491l-0.173,0.305l-1.387,2.133l2.253,1.066l0.607,0.305l1.473-2.514l-0.953-0.457
	L831.261,97.491"/>
<path fill="none" d="M829.701,101.3h4.333v-3.809h-4.333V101.3"/>
<path fill="#0F9247" d="M780.133,122.776l-2.946,1.541l1.82,2.619l2.86-1.618L780.133,122.776"/>
<path fill="none" d="M777.187,126.936h4.679v-4.16h-4.679V126.936"/>
<path fill="#4B2B13" d="M798.591,167.3l2.6,3.004l3.38-2.311l-3.38,2.311L798.591,167.3 M801.971,164.989l1.646,1.926
	L801.971,164.989"/>
<path fill="#F18D24" d="M801.971,164.989l-3.38,2.311l2.6,3.004l3.38-2.311l-0.953-1.155L801.971,164.989"/>
<path fill="none" d="M798.591,170.304h5.979v-5.315h-5.979V170.304"/>
<path fill="#460D0F" d="M809.423,124.471l-0.867,2.465l2.86,0.77l-2.773-0.77L809.423,124.471"/>
<path fill="#DD2429" d="M809.423,124.471l-0.78,2.465l2.773,0.77l0.78-2.465L809.423,124.471"/>
<path fill="none" d="M808.557,127.706h3.64v-3.235h-3.64V127.706"/>
<path fill="#4B2B13" d="M737.758,171.691l1.906,5.161l-6.153,1.772l6.153-1.772L737.758,171.691"/>
<path fill="#F18D24" d="M737.758,171.691l-5.459,3.852l1.213,3.081l6.153-1.772L737.758,171.691"/>
<path fill="none" d="M731.432,178.623h8.232v-7.241h-8.232V178.623"/>
<path fill="#CC267D" d="M803.704,112.344l-2.34,2.742l3.12,2.057l2.34-2.742L803.704,112.344"/>
<path fill="none" d="M801.364,117.143h5.459v-4.799h-5.459V117.143"/>
<path fill="#4D3B1A" d="M773.461,174.541l4.246,0.308L773.461,174.541 M773.807,170.766l-0.347,3.774L773.807,170.766l2.686,0.154
	L773.807,170.766"/>
<path fill="#F7BE20" d="M773.807,170.766l-0.347,3.774l4.246,0.308l0.347-3.774l-1.56-0.077L773.807,170.766"/>
<path fill="none" d="M773.461,174.849h4.593v-4.083h-4.593V174.849"/>
<path fill="#4D3B1A" d="M748.937,183.63l0.433,3.62l-4.073,0.385l4.073-0.385L748.937,183.63"/>
<path fill="#F7BE20" d="M748.937,183.63l-4.073,0.385l0.433,3.62l4.073-0.385L748.937,183.63"/>
<path fill="none" d="M744.864,187.636h4.506v-4.006h-4.506V187.636"/>
<path fill="#0B3347" d="M764.189,176.62l-1.3,3.312l1.993,0.616l-1.993-0.616L764.189,176.62 M764.189,176.62l1.473,0.462
	L764.189,176.62"/>
<path fill="#2BAAE2" d="M764.189,176.62l-1.3,3.312l2.08,0.616l1.646,0.539l1.3-3.312l-2.253-0.693L764.189,176.62"/>
<path fill="none" d="M762.889,181.088h5.026v-4.468h-5.026V181.088"/>
<path fill="#7DB641" d="M776.754,178.623l-3.9,2.157l2.34,3.543l3.986-2.157L776.754,178.623"/>
<path fill="none" d="M772.854,184.324h6.326v-5.7h-6.326V184.324"/>
<path fill="#221028" d="M801.191,143.112l-0.607,3.235l-0.78-0.154l0.78,0.154L801.191,143.112"/>
<path fill="#6B3682" d="M797.551,142.496l-0.607,3.235l2.86,0.462l0.78,0.154l0.607-3.235L797.551,142.496"/>
<path fill="none" d="M796.945,146.348h4.246v-3.852h-4.246V146.348"/>
<path fill="#0B3347" d="M756.129,175.85l-3.033,0.924L756.129,175.85 M752.057,174.156l0.433,1.232L752.057,174.156
	 M755.003,173.231l-2.34,0.693L755.003,173.231"/>
<path fill="#2BAAE2" d="M755.003,173.231l-2.34,0.693l-0.607,0.231l0.433,1.155l0.607,1.464l3.033-0.924L755.003,173.231"/>
<path fill="none" d="M752.057,176.775h4.073v-3.543h-4.073V176.775"/>
<path fill="#062C17" d="M813.496,167.839l-0.607,3.004l-3.38-0.539l3.38,0.539L813.496,167.839"/>
<path fill="#0F9247" d="M810.117,167.3l-0.607,3.004l3.38,0.539l0.607-3.004L810.117,167.3"/>
<path fill="none" d="M809.51,170.843h3.986V167.3h-3.986V170.843"/>
<path fill="#4B2B13" d="M792.439,169.842l3.9,0.231L792.439,169.842 M792.352,166.067l-0.173,2.157L792.352,166.067"/>
<path fill="#F18D24" d="M792.352,166.067l-0.173,2.08l0.26,1.695l3.9,0.231l0.26-3.774L792.352,166.067"/>
<path fill="#D82318" d="M792.179,168.147l-0.087,1.695h0.347L792.179,168.147"/>
<path fill="none" d="M792.092,170.073h4.506v-4.006h-4.506V170.073"/>
<path fill="#DD2429" d="M766.442,171.922l-2.513,1.387l1.56,2.234l2.513-1.387L766.442,171.922"/>
<path fill="none" d="M763.929,175.542h4.073v-3.62h-4.073V175.542"/>
<path fill="#481210" d="M744.084,173.924l-2.253,0.385L744.084,173.924 M745.817,173.616l0.693,3.466l-3.9,0.616l3.9-0.616
	L745.817,173.616"/>
<path fill="#E63935" d="M745.817,173.616l-1.733,0.308l-2.253,0.308l0.693,3.543l3.986-0.616L745.817,173.616"/>
<path fill="none" d="M741.831,177.776h4.679v-4.16h-4.679V177.776"/>
<path fill="#CC267D" d="M805.004,171.614l-5.459,5.623l6.413,4.853l5.286-5.7L805.004,171.614"/>
<path fill="none" d="M799.544,182.09h11.699v-10.476h-11.699V182.09"/>
<path fill="#4D3B1A" d="M758.989,188.021l1.213,0.154L758.989,188.021 M756.909,187.79l1.82,0.231L756.909,187.79 M760.636,185.71
	l-0.347,2.465L760.636,185.71 M752.057,181.088l-0.867,6.008L752.057,181.088"/>
<path fill="#F7BE20" d="M752.403,179.085l-0.347,2.003l-0.867,6.008l5.719,0.693l1.82,0.231l0.087-0.077l0.173,0.077l1.213,0.154
	l0.433-2.465l0.78-5.546L752.403,179.085"/>
<path fill="#E96905" d="M758.816,187.944l-0.087,0.077h0.26L758.816,187.944"/>
<path fill="none" d="M751.19,188.175h10.225v-9.09H751.19V188.175"/>
<path fill="#28371B" d="M755.263,123.922l0.607,0.381L755.263,123.922 M760.029,119.124l-1.993,2.437L760.029,119.124
	 M757.603,117.6l1.04,0.686L757.603,117.6 M754.136,115.467l-1.82,2.209L754.136,115.467l0.26,0.152L754.136,115.467"/>
<path fill="#7DB641" d="M754.136,115.467l-1.733,2.209l-0.867,0.99l4.766,4.342l-1.04,0.914l0.52,0.381l2.253-2.666l1.993-2.514
	l-1.387-0.838l-1.04-0.686l-2.6,0.533l-0.607-2.514L754.136,115.467"/>
<path fill="none" d="M749.977,124.303h10.052v-8.836h-10.052V124.303"/>
<path fill="#28371B" d="M772.941,163.448l1.127,4.468L772.941,163.448 M778.314,161.985l-5.459,1.078L778.314,161.985"/>
<path fill="#7DB641" d="M778.314,161.985l-5.459,1.155l0.087,0.308l1.127,4.545l5.459-1.155L778.314,161.985"/>
<path fill="none" d="M772.854,167.993h6.673v-6.008h-6.673V167.993"/>
<path fill="#031E34" d="M727.533,142.188l-2.34,1.849L727.533,142.188"/>
<path fill="#0B5FA5" d="M724.326,139.03l-2.773,2.157l0.433,1.849l1.993,2.003l1.213-1.001l2.34-1.849L724.326,139.03"/>
<path fill="none" d="M720.774,145.038h6.759v-6.008h-6.759V145.038"/>
<path fill="#470F2D" d="M796.685,152.664l-4.593,1.387L796.685,152.664 M790.012,148.581l0.173,0.539L790.012,148.581
	 M796.165,146.733l-1.56,0.462L796.165,146.733"/>
<path fill="#E52188" d="M796.165,146.733l-1.473,0.462l-4.68,1.387l0.26,0.539l1.82,4.93l4.593-1.387l1.56-0.462L796.165,146.733"/>
<path fill="none" d="M790.012,154.051h8.232v-7.318h-8.232V154.051"/>
<path fill="#460D0F" d="M800.238,147.734l3.553,2.311L800.238,147.734 M802.751,144.576l3.553,2.311l-2.6,3.158l2.6-3.158
	L802.751,144.576"/>
<path fill="#DD2429" d="M802.751,144.576l-2.513,3.158l3.553,2.311l2.513-3.158L802.751,144.576"/>
<path fill="none" d="M800.238,150.045h6.066v-5.469h-6.066V150.045"/>
<path fill="#410D28" d="M811.936,152.972l1.213,0.847l-2.34,2.773l2.34-2.773L811.936,152.972 M810.03,151.663l-1.733,2.08
	L810.03,151.663"/>
<path fill="#CC267D" d="M810.03,151.663l-1.82,2.08l-0.52,0.693l3.12,2.157l2.34-2.773l-1.213-0.847L810.03,151.663"/>
<path fill="none" d="M807.69,156.593h5.459v-4.93h-5.459V156.593"/>
<path fill="#4D3B1A" d="M821.295,125.598l4.246,0.305v-0.076v0.076L821.295,125.598 M821.642,121.866l-0.173,2.514L821.642,121.866
	l1.993,0.152L821.642,121.866"/>
<path fill="#F7BE20" d="M821.642,121.866l-0.26,2.514l-0.087,1.219l4.246,0.305v-0.076l0.347-3.732l-2.34-0.076L821.642,121.866"/>
<path fill="none" d="M821.295,125.903h4.593v-4.037h-4.593V125.903"/>
<path fill="#0B3347" d="M808.123,157.671l-3.206,0.308L808.123,157.671l0.433,3.62l-0.867,0.077l0.867-0.077L808.123,157.671"/>
<path fill="#2BAAE2" d="M808.123,157.671l-3.206,0.308l-0.867,0.077l0.433,3.62l3.206-0.308l0.867-0.077L808.123,157.671"/>
<path fill="none" d="M804.051,161.677h4.506v-4.006h-4.506V161.677"/>
<path fill="#0B3347" d="M782.126,162.986l3.726,1.155L782.126,162.986 M782.993,160.598l-0.953,2.388L782.993,160.598
	 M783.426,159.674l3.466,1.078L783.426,159.674"/>
<path fill="#2BAAE2" d="M783.34,159.674l-0.347,0.924l-0.867,2.388l3.726,1.155l1.3-3.312l-0.26-0.077L783.34,159.674"/>
<path fill="none" d="M782.126,164.142h5.026v-4.468h-5.026V164.142"/>
<path fill="#28371B" d="M823.722,152.125l-2.426,1.387L823.722,152.125 M819.995,151.123l-0.347,0.154l1.3,1.926l-1.3-1.926
	L819.995,151.123 M822.162,149.891l1.56,2.157L822.162,149.891"/>
<path fill="#7DB641" d="M822.162,149.891l-2.166,1.232l-0.347,0.154l1.386,1.926l0.173,0.231l2.513-1.31L822.162,149.891"/>
<path fill="none" d="M819.649,153.434h4.073v-3.543h-4.073V153.434"/>
<path fill="#28371B" d="M812.283,141.264l-0.693,3.235l3.726,0.539l-3.726-0.539L812.283,141.264"/>
<path fill="#7DB641" d="M812.283,141.264l-0.693,3.235l3.726,0.539l0.607-3.235L812.283,141.264"/>
<path fill="none" d="M811.59,145.038h4.333v-3.774h-4.333V145.038"/>
<path fill="#4B2B13" d="M828.834,134.947l-2.946,0.924l1.04,2.696l2.253-0.693l-2.253,0.693l-1.04-2.696L828.834,134.947l1.04,2.696
	L828.834,134.947"/>
<path fill="#F18D24" d="M828.834,134.947l-2.946,0.924l1.04,2.696l2.253-0.693l0.693-0.231L828.834,134.947"/>
<path fill="none" d="M825.888,138.568h3.986v-3.62h-3.986V138.568"/>
<path fill="#0F9247" d="M828.574,108.003l-0.607,2.971l3.293,0.533l0.607-2.895L828.574,108.003"/>
<path fill="none" d="M827.968,111.506h3.9v-3.504h-3.9V111.506"/>
<path fill="#4B2B13" d="M817.136,114.477l4.246,0.305L817.136,114.477 M817.396,110.745l-0.347,3.732L817.396,110.745"/>
<path fill="#F18D24" d="M817.396,110.745l-0.26,3.732l4.246,0.305l0.347-3.732L817.396,110.745"/>
<path fill="none" d="M817.136,114.782h4.593v-4.037h-4.593V114.782"/>
<path fill="#460D0F" d="M811.503,118.514l-2.426,1.371L811.503,118.514 M807.517,117.676l0.173,0.229L807.517,117.676
	 M809.077,116.838l-1.646,0.914L809.077,116.838 M809.943,116.381l1.56,2.133L809.943,116.381"/>
<path fill="#DD2429" d="M809.943,116.381l-0.867,0.457l-1.56,0.838l0.087,0.229l1.387,1.98l2.513-1.371L809.943,116.381"/>
<path fill="none" d="M807.517,119.885h3.986v-3.504h-3.986V119.885"/>
<path fill="#481210" d="M820.342,128.322l-1.56,0.231L820.342,128.322 M819.649,124.856l0.693,3.466L819.649,124.856"/>
<path fill="#E63935" d="M819.649,124.856l-3.986,0.616l0.693,3.466l2.426-0.385l1.56-0.231L819.649,124.856"/>
<path fill="none" d="M815.663,128.939h4.679v-4.083h-4.679V128.939"/>
<path fill="#0F3632" d="M759.509,134.793l-5.546,5.931L759.509,134.793"/>
<path fill="#2EB29F" d="M752.75,129.863l-5.546,5.931l6.759,4.93l5.546-5.931L752.75,129.863"/>
<path fill="none" d="M747.204,140.724h12.305v-10.861h-12.305V140.724"/>
<path fill="#7DB641" d="M785.506,113.258l-6.499,4.037l4.593,5.637l6.413-3.961L785.506,113.258"/>
<path fill="none" d="M779.007,122.932h11.005v-9.674h-11.005V122.932"/>
<path fill="#4E4721" d="M759.769,168.07l-7.972,0.924L759.769,168.07 M759.162,163.833l0.607,4.16L759.162,163.833 M758.642,160.521
	l-6.066,0.693L758.642,160.521"/>
<path fill="#F8E60C" d="M758.643,160.521l-6.066,0.693l-2.426,0.308l0.433,2.388h1.3v0.077l-0.087,5.007l7.972-0.924l-0.607-4.237
	L758.643,160.521"/>
<path fill="none" d="M750.15,169.072h9.619v-8.55h-9.619V169.072"/>
<path fill="#062C17" d="M746.857,159.674l1.127,1.464L746.857,159.674 M738.105,159.52l-0.173,0.077l4.073,5.315l-4.073-5.315
	L738.105,159.52"/>
<path fill="#0F9247" d="M738.538,159.289l-0.433,0.231l-0.173,0.077l4.159,5.392l0.953-0.616v-0.539h0.953l4.073-2.465l-0.173-0.231
	l-1.04-1.464l-0.173,0.77L738.538,159.289"/>
<path fill="none" d="M737.932,164.989h10.139v-9.013h-10.139V164.989"/>
<path fill="#4B2B13" d="M785.073,139.107l-6.932,5.238L785.073,139.107 M784.813,138.799l0.26,0.308L784.813,138.799
	 M779.093,132.944l-1.473,1.078L779.093,132.944"/>
<path fill="#F18D24" d="M779.093,132.944l-1.387,1.078l-5.546,4.16l5.979,6.162l6.933-5.238l-0.26-0.308L779.093,132.944"/>
<path fill="none" d="M772.161,144.345h12.912v-11.4h-12.912V144.345"/>
<path fill="#481210" d="M756.129,148.967l4.939,3.081L756.129,148.967 M758.989,141.495l-4.939,6.239L758.989,141.495"/>
<path fill="#E63935" d="M758.989,141.495l-4.939,6.162l2.08,1.31l4.939,3.081l4.939-6.239l-2.86-1.695l-1.733,0.308l-0.347-1.695
	L758.989,141.495"/>
<path fill="none" d="M754.05,152.048h11.959v-10.553H754.05V152.048"/>
<path fill="#410D28" d="M729.786,92.007l-0.953,3.428L729.786,92.007l5.719,1.295L729.786,92.007"/>
<path fill="#CC267D" d="M729.786,92.007l-0.953,3.428l4.333,2.742l0.867,0.152l1.473-5.027L729.786,92.007"/>
<path fill="none" d="M728.313,98.329h7.193v-6.322h-7.193V98.329"/>
<path fill="#4D3B1A" d="M745.124,139.492l1.993,5.469l-4.333,1.232l4.333-1.232L745.124,139.492"/>
<path fill="#F7BE20" d="M745.124,139.492l-1.56,0.462l-1.473,3.158l-2.86-1.001l1.733,4.622l1.82-0.539l4.333-1.232L745.124,139.492
	"/>
<path fill="none" d="M738.971,146.733h8.146v-7.241h-8.146V146.733"/>
<path fill="#4E4721" d="M774.154,125.549l-3.38,1.618l-0.173-0.308l0.173,0.308L774.154,125.549 M773.287,119.695l-5.286,2.542
	L773.287,119.695l1.473,2.465L773.287,119.695"/>
<path fill="#F8E80B" d="M773.287,119.695l-5.286,2.542l3.986,1.618l-1.473,2.927l0.087,0.077l0.173,0.308l3.38-1.618l2.08-1.001
	l-1.473-2.388L773.287,119.695"/>
<path fill="none" d="M767.828,127.167h8.406v-7.472h-8.406V127.167"/>
<path fill="#0B3347" d="M751.797,169.226v2.542V169.226 M743.997,163.833l6.586,0.077L743.997,163.833"/>
<path fill="#2BAAE2" d="M743.997,163.833l-0.953,0.539l-0.087,7.318l8.839,0.077v-2.773l-0.433,0.077l-0.78-5.161L743.997,163.833"
	/>
<path fill="#2C9B3A" d="M750.583,163.91l0.78,5.161l0.433-0.077l0.087-5.007v-0.077L750.583,163.91"/>
<path fill="#01613F" d="M743.044,163.833v0.539l0.953-0.539H743.044"/>
<path fill="none" d="M742.958,171.768h8.926v-7.934h-8.926V171.768"/>
<path fill="#062C17" d="M738.711,109.678l3.9,1.98L738.711,109.678 M749.544,105.565l-4.679,7.084L749.544,105.565"/>
<path fill="#0F9247" d="M741.311,101.3l-0.953,1.447l2.686,1.676l-4.333,5.256l3.9,1.98l0.607-0.533l1.646,1.523l4.679-7.084
	L741.311,101.3"/>
<path fill="none" d="M736.545,112.725h12.999V101.3h-12.999V112.725"/>
<path fill="#460D0F" d="M762.889,116.61l-4.419,0.838L762.889,116.61 M754.223,115.01l0.173,0.609L754.223,115.01 M761.242,109.678
	l0.087,0.305L761.242,109.678"/>
<path fill="#DD2429" d="M761.242,109.678l-7.886,1.447l0.867,3.885l0.173,0.609l3.206,1.98l0.867-0.152l4.419-0.838l-1.56-6.627
	L761.242,109.678"/>
<path fill="#6A1B18" d="M754.396,115.62l0.607,2.514l2.6-0.533L754.396,115.62"/>
<path fill="none" d="M753.356,118.133h9.532v-8.455h-9.532V118.133"/>
<path fill="#481210" d="M736.978,159.058l1.646,0.231L736.978,159.058 M747.464,156.439l-0.607,3.235L747.464,156.439
	 M736.892,152.356l-1.213,6.548L736.892,152.356 M740.271,149.506l6.759,1.001L740.271,149.506"/>
<path fill="#E63935" d="M740.271,149.506l-3.38,2.85l-1.213,6.471l1.3,0.231l1.56,0.231l5.459-3.312l2.86,3.697l0.607-3.235
	l1.04-5.7l-1.56-0.231L740.271,149.506"/>
<path fill="#0E2211" d="M743.997,155.976l-5.459,3.312l8.146,1.155l0.173-0.77L743.997,155.976"/>
<path fill="none" d="M735.678,160.444h12.825v-11.4h-12.825V160.444"/>
<path fill="#4B2B13" d="M795.212,116.306l-4.246,4.622l6.759,4.93l-6.759-4.93L795.212,116.306 M796.511,114.919l3.9,2.85
	L796.511,114.919"/>
<path fill="#F18D24" d="M796.511,114.919l-1.3,1.387l-4.246,4.622l6.759,4.93l5.546-6.008l-2.86-2.08L796.511,114.919"/>
<path fill="none" d="M790.965,125.858h12.305v-10.938h-12.305V125.858"/>
<path fill="#28371B" d="M778.66,107.926l-4.333,2.666L778.66,107.926 M769.648,104.956l-2.08,1.295L769.648,104.956"/>
<path fill="#7DB641" d="M772.334,103.28l-2.686,1.676l-2.08,1.219l4.593,5.713l2.166-1.295l4.333-2.666l-3.64-4.494l-1.473,1.143
	L772.334,103.28"/>
<path fill="none" d="M767.568,111.887h11.092v-9.674h-11.092V111.887"/>
<path fill="#4E4721" d="M793.305,104.651l0.867,5.56L793.305,104.651 M792.958,102.823l-8.492,0.99l1.127,7.465l8.492-0.99
	l-8.492,0.99l-1.127-7.465L792.958,102.823"/>
<path fill="#F8E60C" d="M792.958,102.823l-8.406,0.99l1.127,7.465l8.492-0.99l-0.867-5.637L792.958,102.823"/>
<path fill="none" d="M784.553,111.278h9.619v-8.455h-9.619V111.278"/>
<path fill="#470F2D" d="M780.48,99.319l-2.6,1.98L780.48,99.319 M774.501,93.225l-6.933,5.18L774.501,93.225l1.993,2.057
	L774.501,93.225"/>
<path fill="#E52188" d="M774.501,93.225l-6.933,5.18l4.766,4.875l1.733-1.066l0.953,1.219l2.86-2.133l2.6-1.98l-3.986-4.037
	L774.501,93.225"/>
<path fill="#6F1625" d="M774.067,102.214l-1.733,1.066l1.213,1.295l1.473-1.143L774.067,102.214"/>
<path fill="none" d="M767.568,104.575h12.912V93.225h-12.912V104.575"/>
<path fill="#460D0F" d="M737.932,99.014l6.066,1.295L737.932,99.014 M739.405,93.759l-1.473,5.332L739.405,93.759"/>
<path fill="#DD2429" d="M739.405,93.759l-1.473,5.256l5.979,1.295l1.473-5.332L739.405,93.759"/>
<path fill="none" d="M737.932,100.309h7.452v-6.551h-7.452V100.309"/>
<path fill="#481210" d="M782.3,142.034l-4.853,6.162L782.3,142.034l7.019,4.314L782.3,142.034"/>
<path fill="#E63935" d="M782.3,142.034l-4.853,6.162l7.019,4.391l4.853-6.239L782.3,142.034"/>
<path fill="none" d="M777.447,152.587h11.872v-10.553h-11.872V152.587"/>
<path fill="#410D28" d="M808.037,104.499l-1.473,5.027l5.719,1.295l-5.719-1.295L808.037,104.499l5.719,1.295L808.037,104.499"/>
<path fill="#CC267D" d="M808.037,104.499l-1.473,5.027l5.719,1.295l1.473-5.027L808.037,104.499"/>
<path fill="none" d="M806.564,110.821h7.192v-6.322h-7.192V110.821"/>
<path fill="#4D3B1A" d="M798.245,140.493l-5.113,1.541L798.245,140.493 M796.165,135.024l-2.6,0.77L796.165,135.024"/>
<path fill="#F7BE20" d="M796.165,135.024l-2.6,0.77l-3.553,1.078l2.08,5.392l1.04-0.308l5.113-1.464L796.165,135.024"/>
<path fill="none" d="M790.012,142.265h8.232v-7.241h-8.232V142.265"/>
<path fill="#0B3347" d="M793.045,160.444l-1.993,1.001L793.045,160.444"/>
<path fill="#2BAAE2" d="M793.565,153.974l-5.459,2.619l2.946,4.853l1.993-1.001l3.38-1.618L793.565,153.974"/>
<path fill="none" d="M788.106,161.446h8.319v-7.472h-8.319V161.446"/>
<path fill="#0F3632" d="M809.077,135.178l-5.893,0.308L809.077,135.178l0.433,5.238L809.077,135.178"/>
<path fill="#2EB29F" d="M809.077,135.178l-5.893,0.308l0.347,5.315l5.979-0.385L809.077,135.178"/>
<path fill="none" d="M803.184,140.801h6.326v-5.623h-6.326V140.801"/>
<path fill="#28371B" d="M784.293,127.629l4.073,2.542L784.293,127.629"/>
<path fill="#7DB641" d="M788.539,122.468l-4.246,5.161l4.073,2.542l2.166-1.464l0.953,1.078l2.86-3.62L788.539,122.468"/>
<path fill="#78882F" d="M790.532,128.708l-2.166,1.464l1.82,1.155l1.3-1.541L790.532,128.708"/>
<path fill="none" d="M784.293,131.327h10.052v-8.858h-10.052V131.327"/>
<path fill="#28371B" d="M813.756,135.024l1.213,4.853L813.756,135.024 M819.215,133.869l-5.459,1.078L819.215,133.869"/>
<path fill="#7DB641" d="M819.215,133.869l-5.459,1.155l1.213,4.776l5.459-1.078L819.215,133.869"/>
<path fill="none" d="M813.756,139.8h6.673v-5.931h-6.673V139.8"/>
<path fill="#4E4721" d="M766.961,161.523l5.806,1.31l-1.473,5.238l1.473-5.238L766.961,161.523"/>
<path fill="#F8E60C" d="M766.961,161.523l-1.56,5.161v0.077l5.893,1.31l1.473-5.238L766.961,161.523"/>
<path fill="none" d="M765.402,168.07h7.366v-6.548h-7.366V168.07"/>
<path fill="#0B3347" d="M803.617,100.462l-3.553,2.818L803.617,100.462 M796.771,100.157l3.206,3.123L796.771,100.157"/>
<path fill="#2BAAE2" d="M800.411,97.339l-3.64,2.818l3.206,3.123l3.64-2.818L800.411,97.339"/>
<path fill="none" d="M796.771,103.28h6.846v-5.941h-6.846V103.28"/>
<path fill="#062C17" d="M800.411,131.866l2.686,0.308L800.411,131.866 M801.018,127.321l-0.607,4.545L801.018,127.321"/>
<path fill="#0F9247" d="M801.018,127.321l-0.607,4.545l2.686,0.231l2.426,0.308l0.607-4.545v-0.077L801.018,127.321"/>
<path fill="none" d="M800.411,132.405h5.719v-5.084h-5.719V132.405"/>
<path fill="#0F3632" d="M769.908,128.091l-2.686,5.392L769.908,128.091 M761.156,119.541l-4.853,9.706L761.156,119.541l4.593,1.772
	L761.156,119.541"/>
<path fill="#2EB29F" d="M761.156,119.541l-4.853,9.629l10.919,4.314l2.686-5.392l0.607-1.31l-2.686-4.468l0.173-0.077l-2.253-0.924
	L761.156,119.541"/>
<path fill="#30A139" d="M768.001,122.237l-0.173,0.077l2.686,4.468l1.473-2.927L768.001,122.237"/>
<path fill="none" d="M756.303,133.484h15.685v-13.942h-15.685V133.484"/>
<path fill="#0F3632" d="M748.59,102.061l3.38,2.361L748.59,102.061 M763.149,101.528l-5.979,6.627L763.149,101.528 M755.436,94.52
	l-5.546,6.17L755.436,94.52 M755.436,94.52l3.466,2.437L755.436,94.52"/>
<path fill="#2EB29F" d="M755.436,94.52l-5.546,6.17l-1.3,1.371l3.293,2.361l5.286,3.732l5.979-6.627l0.867-0.914l-5.113-3.656
	L755.436,94.52"/>
<path fill="none" d="M748.59,108.155h15.425V94.52H748.59V108.155"/>
<path fill="#28371B" d="M765.575,143.652l-2.426,0.462L765.575,143.652 M760.202,139.338l0.78,3.466L760.202,139.338
	 M761.329,137.104l-1.56,0.308L761.329,137.104 M767.655,135.871l0.26,1.155L767.655,135.871"/>
<path fill="#7DB641" d="M767.655,135.871l-6.326,1.232l-1.56,0.308l0.433,1.926l0.867,3.389l2.08,1.387l2.426-0.462l3.726-0.693
	l-1.387-5.854L767.655,135.871"/>
<path fill="#6E2A1A" d="M761.069,142.727l0.347,1.695l1.733-0.308L761.069,142.727"/>
<path fill="none" d="M759.769,144.422h9.532v-8.55h-9.532V144.422"/>
<path fill="#410D28" d="M718.694,115.998l2.253,10.091L718.694,115.998 M735.159,111.53l0.26,1.078L735.159,111.53"/>
<path fill="#CC267D" d="M727.706,120.234l-3.553-2.311l2.6-3.158l3.553,2.311L727.706,120.234 M735.159,111.53l-2.686,3.235
	l-4.68-3.004l-4.159,0.77l-4.939,3.466l2.253,10.091l7.539,1.155l7.452-1.31l-6.153-5.623l6.153-5.315l-0.52-2.311L735.159,111.53"
	/>
<path fill="#AE1F24" d="M726.666,117.143l-2.6,3.199l3.64,2.209l2.513-3.123L726.666,117.143"/>
<path fill="none" d="M718.087,128.554h20.191v-18.025h-20.191V128.554"/>
<path fill="#F7BE20" d="M742.611,109.219l-6.673,5.777l2.34,10.553l-2.34,0.385l2.6,2.465l6.239,2.234l10.485-9.013l-5.286-3.389
	l1.56-1.926l-6.673-6.085l-0.087,0.077L742.611,109.219"/>
<path fill="#78882F" d="M751.537,118.667l-1.56,1.904l5.286,3.352l1.04-0.914L751.537,118.667"/>
<path fill="#126C37" d="M743.218,111.126l-0.607,0.533l2.166,1.066l0.087-0.076L743.218,111.126"/>
<path fill="#C31F20" d="M735.938,114.996l-6.153,5.315l6.153,5.623l2.34-0.385L735.938,114.996"/>
<path fill="none" d="M729.786,132.328h26.517V108.68h-26.517V132.328"/>
<path fill="#0A132A" d="M725.193,112.573l2.6,1.676L725.193,112.573 M738.711,109.678l-3.553,4.266L738.711,109.678
	 M718.694,107.089l-0.433,0.533L718.694,107.089 M733.165,98.177l7.193,4.57L733.165,98.177 M727.706,96.196l-4.68,5.713
	L727.706,96.196 M728.486,95.206l0.347,0.229L728.486,95.206"/>
<path fill="#244184" d="M728.486,95.206l-0.78,0.99l-4.68,5.637l1.127,4.113l-5.459,1.143l-0.433,0.609l-0.26,0.305l7.193,4.57
	l2.6,1.676l7.193-1.295l0.173,0.99l3.553-4.266l-2.166-1.143l3.813-5.789l-7.193-4.57l-4.853-1.143l0.52-1.6L728.486,95.206"/>
<path fill="#1D1D3B" d="M728.833,95.434l-0.52,1.6l4.853,1.143L728.833,95.434"/>
<path fill="#042525" d="M740.358,102.747l-3.813,5.789l2.166,1.143l4.333-5.256L740.358,102.747"/>
<path fill="#1D1D3B" d="M734.985,112.954l-7.193,1.295l4.766,2.971l2.6-3.275L734.985,112.954"/>
<path fill="none" d="M718.001,117.219h25.044V95.206h-25.044V117.219"/>
<path fill="#28371B" d="M719.994,137.489l9.619,1.464L719.994,137.489 M728.399,127.321l4.939,0.77L728.399,127.321"/>
<path fill="#7DB641" d="M720.774,126.089l-1.733,9.013l1.127,2.311l-0.173,0.077l9.619,1.541l1.56,0.231v-0.154l-1.993-0.77
	l3.726-7.934l0.433-2.311l-4.939-0.77l-6.933,1.232l-0.52-2.465L720.774,126.089"/>
<path fill="#631D21" d="M720.947,126.089l0.52,2.465l6.933-1.232L720.947,126.089"/>
<path fill="none" d="M718.607,139.261h14.732v-13.172h-14.732V139.261"/>
<path fill="#221028" d="M732.299,175.542l-4.073,2.927L732.299,175.542 M723.2,173.462l0.433,0.462L723.2,173.462 M739.318,170.535
	l-1.646,1.155L739.318,170.535"/>
<path fill="#6B3682" d="M730.479,158.364l-0.953,0.616l0.953,6.471l-9.099,1.078l2.166,0.693l-1.733,4.622l1.387,1.618l0.433,0.462
	l1.993-0.77l2.686,5.238l3.986-2.85l-0.867-2.388l6.153-1.772l0.173,0.308l1.56-1.155l1.3-0.924L730.479,158.364"/>
<path fill="#631F16" d="M737.585,171.382l-6.153,1.772l0.867,2.388l5.459-3.852L737.585,171.382"/>
<path fill="none" d="M717.741,178.7h22.877v-20.336h-22.877V178.7"/>
<path fill="#4E4721" d="M708.295,147.965l0.087,0.308L708.295,147.965 M721.987,143.035l0.78,3.62L721.987,143.035"/>
<path fill="#F8E60C" d="M721.294,140.185l-10.832,1.926l-2.166,5.623v0.231l0.087,0.308l8.839,1.078l-0.693,4.699h0.26l7.366-1.31
	l-0.867-3.774l-1.56-1.387l1.04-0.847l-0.78-3.697l-1.213-1.232l0.78-0.616L721.294,140.185"/>
<path fill="#14582F" d="M721.553,141.187l-0.78,0.616l1.213,1.232L721.553,141.187"/>
<path fill="none" d="M707.168,155.283h16.985v-15.098h-16.985V155.283"/>
<path fill="#031E34" d="M733.512,139.954l1.04,0.385L733.512,139.954 M731.172,139.107l0.26,0.077L731.172,139.107 M747.464,131.635
	l-3.9,8.319L747.464,131.635 M744.777,130.633l2.686,1.001L744.777,130.633 M734.552,126.859l-1.646,3.466L734.552,126.859
	l3.986,1.464L734.552,126.859"/>
<path fill="#0B5FA5" d="M734.552,126.859l-1.646,3.543l-1.733,8.704l0.26,0.077l0.693-0.539l1.387,1.31l1.04,0.385l4.68,1.772
	l-0.26-0.77l4.593-1.387l3.9-8.319l-2.686-1.001l-1.906,1.695l-4.333-3.929L734.552,126.859"/>
<path fill="#104827" d="M743.564,139.954l-4.593,1.387l0.26,0.77l2.86,1.001L743.564,139.954 M738.538,128.4l4.333,3.929
	l1.906-1.695L738.538,128.4"/>
<path fill="#0A452C" d="M732.905,130.402l-3.726,7.934l1.993,0.77L732.905,130.402"/>
<path fill="none" d="M729.179,143.112h18.285v-16.253h-18.285V143.112"/>
<path fill="#062C17" d="M711.761,121.409l0.867,0.99L711.761,121.409 M718.694,118.362l-5.979,4.037L718.694,118.362
	 M710.201,108.764l-4.246,2.895L710.201,108.764 M717.047,107.469l6.586,7.465L717.047,107.469"/>
<path fill="#0F9247" d="M717.047,107.469l-6.759,1.447l-0.087-0.152l-4.246,2.895l4.506,7.389l-0.52,0.229l1.82,2.133l0.953,0.99
	l5.979-4.037l-0.607-2.437l5.546-0.99L717.047,107.469"/>
<path fill="#091724" d="M723.633,114.934l-5.546,0.99l0.607,2.437L723.633,114.934"/>
<path fill="none" d="M704.222,122.399h19.411v-17.062h-19.411V122.399"/>
<path fill="#4B2B13" d="M728.833,154.051l2.686,2.465L728.833,154.051 M736.545,152.664l-4.766,4.083L736.545,152.664
	 M723.287,148.967l3.38,3.158L723.287,148.967 M742.091,147.811l-1.906,1.618L742.091,147.811 M725.193,144.576l-2.426,2.08
	L725.193,144.576"/>
<path fill="#F18D24" d="M731.432,139.184l-6.239,5.392l-2.426,2.157l0.52,2.234l3.38,3.158l0.78,0.693l1.213-0.154l0.173,1.387
	l2.686,2.465l0.26,0.231l4.766-4.083l0.347-0.308l0.693-3.312l2.686,0.462l1.82-1.695l-8.579-7.857L731.432,139.184"/>
<path fill="#D82318" d="M737.585,149.044l-0.693,3.312l3.38-2.85L737.585,149.044"/>
<path fill="#E97E01" d="M722.767,146.733l-1.04,0.847l1.56,1.387L722.767,146.733"/>
<path fill="#0D351C" d="M732.126,138.645l-0.693,0.539l2.08,0.77L732.126,138.645"/>
<path fill="none" d="M721.727,156.747h20.364v-18.102h-20.364V156.747"/>
<path fill="#051F25" d="M729.526,158.981l-9.792,7.01l1.646,0.539l9.099-1.078L729.526,158.981"/>
<path fill="#1B853B" d="M716.787,154.051h-0.26v0.077L716.787,154.051"/>
<path fill="#062C17" d="M729.353,157.748l0.173,1.232L729.353,157.748"/>
<path fill="#0F9247" d="M727.446,152.818l-10.659,1.232l-0.26,0.077l-1.127,7.78l0.433,2.927l3.9,1.155l9.792-7.01l-0.173-1.232
	l-0.52-3.697L727.446,152.818"/>
<path fill="#11512C" d="M728.659,152.664l-1.213,0.154l1.387,1.232L728.659,152.664"/>
<path fill="none" d="M714.274,167.146h16.205v-14.482h-16.205V167.146"/>
<path fill="#4B2B13" d="M718.694,107.089l-1.733,0.381L718.694,107.089 M719.387,94.063l-5.546,1.219L719.387,94.063"/>
<path fill="#F18D24" d="M720.774,93.759l-1.387,0.305l-5.546,1.143l0.347,1.447l1.3,0.457l-4.333,10.969l3.986-2.742l1.906,2.133
	l1.646-0.381l4.333-5.256L720.774,93.759"/>
<path fill="#4B2B13" d="M709.941,107.85l0.26,0.914L709.941,107.85"/>
<path fill="#F18D24" d="M709.941,107.85l0.26,0.914l0.78-0.609L709.941,107.85"/>
<path fill="#242412" d="M723.027,101.833l-4.333,5.256l5.459-1.143L723.027,101.833"/>
<path fill="#11512C" d="M715.141,105.337l-3.986,2.742v0.152l-0.173-0.076l-0.78,0.609l0.087,0.152l6.759-1.447L715.141,105.337"/>
<path fill="none" d="M706.822,108.917h17.331V93.759h-17.331V108.917"/>
<path fill="#221028" d="M728.573,196.032l-7.886,1.001L728.573,196.032 M732.126,190.178l0.867,5.315L732.126,190.178"/>
<path fill="#6B3682" d="M731.779,188.098l-11.785,4.622l0.78,4.391l7.799-1.078l4.419-0.539l-0.867-5.315L731.779,188.098"/>
<path fill="none" d="M718.954,197.111h14.038v-12.479h-14.038V197.111"/>
<path fill="#0A132A" d="M719.994,137.489l-0.347,0.154L719.994,137.489 M708.122,128.862l-0.607,0.231L708.122,128.862"/>
<path fill="#244184" d="M708.122,128.862l-0.693,0.308l-0.087,5.161h-2.253l7.539,2.311l-1.733,4.468l8.752-3.466l0.347-0.154
	l-1.387-0.231l0.433-2.157l-2.426-4.853L708.122,128.862"/>
<path fill="#102D22" d="M719.04,135.101l-0.433,2.157l1.387,0.231l0.173-0.077L719.04,135.101"/>
<path fill="none" d="M702.142,142.342h18.025V126.32h-18.025V142.342"/>
<path fill="#0A132A" d="M710.981,178.854l-0.433,0.154L710.981,178.854 M728.313,178.392l4.593,9.321L728.313,178.392"/>
<path fill="#244184" d="M723.633,173.924l-3.12,1.232l-1.906,4.853l-5.893-1.849l-1.733,0.693l-0.433,0.154l-0.693,1.772
	l0.607,1.232l8.926,6.702l-0.433-2.542l12.305-1.541l0.52,3.466l1.127-0.385l-4.593-9.321l-0.433,0.308L723.633,173.924"/>
<path fill="#141E3D" d="M725.626,173.154l-1.993,0.77l4.246,4.776l0.433-0.308L725.626,173.154"/>
<path fill="#0A132A" d="M716.701,194.029l-0.26,0.077L716.701,194.029 M716.181,193.567l0.26,0.616L716.181,193.567"/>
<path fill="#244184" d="M719.56,189.947l-3.38,3.62l0.26,0.539l0.26-0.077l3.293-1.31L719.56,189.947"/>
<path fill="#141E3D" d="M731.259,184.632l-12.305,1.541l0.433,2.542l0.78,0.616l-0.607,0.616l0.433,2.773l11.785-4.622
	L731.259,184.632"/>
<path fill="none" d="M709.248,194.106h23.657v-20.952h-23.657V194.106"/>
<path fill="#28371B" d="M716.181,193.567l-4.246,4.468l-3.033-2.311l3.033,2.311L716.181,193.567"/>
<path fill="#7DB641" d="M710.461,182.013l-1.82,1.926l-1.473,3.62l-0.607-0.231l1.906,6.856l0.433,1.541l3.033,2.234l4.246-4.391
	L710.461,182.013"/>
<path fill="#102D22" d="M710.461,182.013l5.719,11.555l3.38-3.62l-0.173-1.232L710.461,182.013"/>
<path fill="#080A11" d="M719.387,188.714l0.173,1.232l0.607-0.616L719.387,188.714"/>
<path fill="none" d="M702.229,197.958h17.938v-15.945h-17.938V197.958"/>
<path fill="#4E4721" d="M711.068,177.622l1.646,0.539L711.068,177.622 M721.813,171.845l-1.3,3.312L721.813,171.845
	 M706.822,168.994l-0.693,1.695L706.822,168.994 M712.108,163.679l3.64,1.155L712.108,163.679"/>
<path fill="#F8E60C" d="M711.501,163.448l1.473,2.619l-6.153,2.927l-0.693,1.695l6.846,2.08l-1.906,4.853l1.646,0.539l7.799-3.004
	l1.3-3.312l-4.073-4.468l0.78-0.539l-2.34,0.308h-0.087l-0.26-2.311l-3.726-1.155L711.501,163.448"/>
<path fill="#4E4721" d="M705.089,173.462l-0.867,2.08L705.089,173.462"/>
<path fill="#F8E60C" d="M705.089,173.462l-0.867,2.157l0.953,0.308C705.262,174.926,705.175,174.156,705.089,173.462"/>
<path fill="#65331A" d="M721.38,166.53l-2.86,0.308l-0.78,0.539l4.073,4.468l1.733-4.622L721.38,166.53"/>
<path fill="#0E1F0C" d="M719.734,165.99l-1.213,0.847l2.86-0.308L719.734,165.99"/>
<path fill="#1B853B" d="M715.834,164.835l0.26,2.311h0.087l2.34-0.308l1.213-0.847L715.834,164.835"/>
<path fill="#263B1D" d="M720.514,175.157l-7.799,3.004l5.893,1.849L720.514,175.157"/>
<path fill="none" d="M704.222,180.01h19.324v-17.255h-19.324V180.01"/>
<path fill="#4B2B13" d="M701.709,156.67l-6.586,1.387L701.709,156.67 M701.276,148.581l1.127,4.006L701.276,148.581"/>
<path fill="#F18D24" d="M698.416,147.657l-7.626,8.011l-0.953-0.693l0.78,2.927l4.593,0.077v0.077l6.499-1.387l0.607-4.16
	l-1.04-3.929L698.416,147.657"/>
<path fill="none" d="M687.844,158.981h15.512v-13.788h-15.512V158.981"/>
<path fill="#DD2429" d="M690.097,140.57l-2.686,6.779l0.693-0.077l0.087,0.616l6.326-1.387l-2.773-0.847l1.213-3.158l-2.253-1.695
	l-0.087,0.154L690.097,140.57"/>
<path fill="#460D0F" d="M689.144,156.371l0.433,0.381L689.144,156.371"/>
<path fill="#DD2429" d="M688.537,152.41l0.607,3.961l0.433,0.381l0.26,0.152L688.537,152.41"/>
<path fill="#CF181C" d="M694.517,146.502l-6.326,1.387l0.347,2.542l1.3,4.545l0.953,0.693l7.626-8.011L694.517,146.502"/>
<path fill="none" d="M681.085,155.668h17.938v-15.945h-17.938V155.668"/>
<path fill="#481210" d="M706.822,168.994l-2.34,1.155L706.822,168.994 M711.068,162.755l0.433,0.77L711.068,162.755
	 M695.123,162.062l3.813,6.316L695.123,162.062"/>
<path fill="#E63935" d="M701.536,157.671l-6.413,3.081v1.31l3.813,6.394l5.459,1.695l2.426-1.155l2.426-6.239l2.253,0.693
	l-0.433-0.693l-0.867-1.464l-9.012-1.078L701.536,157.671"/>
<path fill="#481210" d="M702.922,170.843l-1.993,0.924l-0.433-0.693l0.433,0.693L702.922,170.843"/>
<path fill="#E63935" d="M702.229,170.766c-0.26,0-0.607,0-0.953,0.077c-0.173,0-0.347,0.077-0.693,0.231l0.433,0.693l1.993-0.924
	C702.749,170.766,702.489,170.766,702.229,170.766"/>
<path fill="#DF3713" d="M709.248,162.755l-2.426,6.239l6.239-2.927h-0.087l-1.473-2.619L709.248,162.755"/>
<path fill="none" d="M694.43,171.768h18.545v-16.484H694.43V171.768"/>
<path fill="#410D28" d="M701.622,148.658l1.3,0.385L701.622,148.658 M708.295,147.734l-0.173,0.539L708.295,147.734 M695.643,135.64
	l-2.686,6.856L695.643,135.64"/>
<path fill="#CC267D" d="M696.25,134.177l0.433,0.385l-1.04,1.078l-2.686,6.856l4.506,3.389l2.86-0.693l0.953,3.389l0.347,0.077
	l1.213,0.385l0.26-1.387l4.939,0.539l0.26-0.462l-1.127-5.084l3.293-0.539v-0.077l0.433-0.924l-3.206,1.232l-3.986-8.011
	L696.25,134.177"/>
<path fill="#C4281F" d="M710.461,142.111l-3.293,0.539l1.127,5.084L710.461,142.111"/>
<path fill="#1D1D3B" d="M703.702,134.331l3.986,8.011l3.206-1.232l1.733-4.468l-7.539-2.311L703.702,134.331"/>
<path fill="#BE1B21" d="M700.323,145.192l-2.86,0.693l1.56,1.155l-0.607,0.616l2.86,0.924L700.323,145.192"/>
<path fill="#AE1F24" d="M692.957,142.496l-1.213,3.158l2.773,0.847l2.946-0.616L692.957,142.496"/>
<path fill="#A41F24" d="M697.463,145.885l-2.946,0.616l3.9,1.155l0.607-0.616L697.463,145.885"/>
<path fill="none" d="M691.744,150.43h20.884v-18.564h-20.884V150.43"/>
<path fill="#4D3B1A" d="M710.201,161.291l2.86,0.308L710.201,161.291 M701.709,156.67l-0.173,1.001L701.709,156.67 M702.836,149.044
	l-0.52,3.466L702.836,149.044 M708.035,148.196l0.347,0.077L708.035,148.196"/>
<path fill="#F7BE20" d="M708.035,148.196l-0.78,2.234l-4.419-1.387l-0.52,3.466l1.04,3.774l-1.646,0.385l-0.087,1.001h-0.087
	l5.026-2.388l3.64,6.008l2.86,0.385l2.34,0.231l-1.127-7.395l-4.333,0.77l-1.56-7.01L708.035,148.196"/>
<path fill="#EFAA02" d="M708.382,148.273l1.56,7.01l4.333-0.77v-0.154l2.253-0.308l0.693-4.699L708.382,148.273"/>
<path fill="#136133" d="M716.527,154.051l-2.253,0.308v0.154l2.253-0.385V154.051"/>
<path fill="#126C37" d="M716.527,154.128l-2.253,0.385l1.127,7.395L716.527,154.128"/>
<path fill="#E96905" d="M702.316,152.51l-0.607,4.16l1.646-0.385L702.316,152.51"/>
<path fill="#DE2E15" d="M706.562,155.283l-5.026,2.388l-0.347,2.542l9.012,1.078L706.562,155.283"/>
<path fill="#C31F20" d="M703.096,147.657l-0.26,1.387l4.419,1.387l0.78-2.234L703.096,147.657"/>
<path fill="none" d="M701.189,161.908h16.031v-14.251h-16.031V161.908"/>
<path fill="#0F3632" d="M690.704,131.844v0.381V131.844"/>
<path fill="#2EB29F" d="M704.569,119.464l-7.106,3.389l-1.56-2.619l1.473,5.161l-6.586,1.464l-0.087,2.773v0.385l5.546,4.16
	l0.867-2.311l6.326,2.003l-1.3-2.696l5.286-2.003v-0.539l0.173-9.09L704.569,119.464"/>
<path fill="#0F2D50" d="M707.428,129.17l-5.286,2.003l1.3,2.696l1.646,0.462h2.253L707.428,129.17"/>
<path fill="#24234B" d="M697.116,131.866l-0.867,2.311l7.452,0.154l-0.26-0.462L697.116,131.866"/>
<path fill="#080C26" d="M703.442,133.869l0.26,0.462h1.387L703.442,133.869"/>
<path fill="none" d="M690.617,134.331h16.985v-15.098h-16.985V134.331"/>
<path fill="#28371B" d="M695.643,135.64l-4.939,5.161L695.643,135.64 M684.031,134.793l-0.52,0.539L684.031,134.793
	 M689.491,129.093l0.433,0.308L689.491,129.093"/>
<path fill="#7DB641" d="M689.491,129.093l-5.459,5.7l-0.433,0.539l7.626,2.311l-1.04,2.696l0.52,0.462l4.939-5.161l0.607-1.464
	l-5.633-0.077l0.087-4.083l-0.78-0.616L689.491,129.093"/>
<path fill="#6A1B18" d="M690.184,142.432l-0.087,0.229l0.52,0.381l0.087-0.152L690.184,142.432"/>
<path fill="#631D21" d="M696.25,134.177l-0.607,1.464l1.04-1.078L696.25,134.177"/>
<path fill="#1A7E3B" d="M690.704,130.017l-0.087,4.083l5.633,0.077L690.704,130.017"/>
<path fill="none" d="M683.425,140.955h13.258v-11.863h-13.258V140.955"/>
<path fill="#4E4721" d="M702.402,105.565l0.953,0.305L702.402,105.565 M701.276,97.186l-0.173,0.457L701.276,97.186 M702.836,93.225
	l5.633,1.752L702.836,93.225"/>
<path fill="#F8E60C" d="M702.836,93.225l-1.56,3.961l-0.173,0.457l1.3,7.922l1.04,0.305l6.499,1.98l-3.12-11.121l1.993-0.457
	l-0.347-1.295L702.836,93.225"/>
<path fill="#E97E01" d="M708.815,96.272l-1.993,0.457l3.12,11.121l1.04,0.305l0.173-0.076l4.333-10.969l-1.3-0.457l0.087,0.305
	l-5.026,0.914h-0.087L708.815,96.272"/>
<path fill="#134927" d="M711.155,108.079l-0.173,0.076l0.173,0.076V108.079"/>
<path fill="none" d="M698.503,108.231h16.985V93.225h-16.985V108.231"/>
<path fill="#031E34" d="M696.51,108.155l0.867,0.99L696.51,108.155"/>
<path fill="#0B5FA5" d="M696.51,108.155l-4.593,0.609l-1.3,3.352l2.253-0.457l0.26,0.914l5.113-2.437l-0.867-0.99L696.51,108.155"/>
<path fill="none" d="M687.844,115.62h11.352v-10.055h-11.352V115.62"/>
<path fill="#481210" d="M705.262,121.485l-0.693,0.305L705.262,121.485 M703.529,107.698l-5.286,2.514L703.529,107.698"/>
<path fill="#E63935" d="M703.529,107.698l-5.286,2.437l0.953,1.143l-5.373,3.656l1.82,6.703l8.926,0.152l0.693-0.305l4.679-2.209
	l-5.719-6.475l1.733-1.143L703.529,107.698"/>
<path fill="#0E2211" d="M705.955,111.659l-1.733,1.143l5.719,6.475l0.52-0.229L705.955,111.659"/>
<path fill="#282720" d="M695.643,121.637l0.26,0.914l1.56,2.59l7.106-3.352L695.643,121.637"/>
<path fill="#091523" d="M698.243,110.135l-5.113,2.437l0.693,2.361l5.373-3.656L698.243,110.135"/>
<path fill="none" d="M690.617,125.141h19.844v-17.443h-19.844V125.141"/>
<path fill="#460D0F" d="M718.521,121.852l-0.433,2.08L718.521,121.852 M708.902,121.39l-1.387,7.241L708.902,121.39"/>
<path fill="#DD2429" d="M709.075,120.388l-0.173,1.001l-1.473,7.241v0.154l0.693,0.077l6.586-2.542l1.906,3.929h0.26l1.213-6.316
	l0.433-2.08L709.075,120.388"/>
<path fill="#200B16" d="M714.708,126.32l-6.586,2.542l8.492,1.387L714.708,126.32"/>
<path fill="#28191A" d="M707.428,128.631v0.154V128.631"/>
<path fill="none" d="M707.428,130.248h11.092v-9.86h-11.092V130.248"/>
<path fill="#4D3B1A" d="M689.404,129.407l-3.986,0.838L689.404,129.407"/>
<path fill="#F7BE20" d="M690.357,112.801l-3.553,9.064l-4.853-1.447l1.213,7.236l2.253,2.59l3.986-0.838l1.386-0.305l0.173-7.541
	l4.419,0.076l-4.766-7.846l0.347-0.229L690.357,112.801"/>
<path fill="#30853A" d="M690.964,119.233l-0.173,7.626l6.586-1.464l-1.473-5.161l-0.52-0.924L690.964,119.233"/>
<path fill="#104827" d="M692.87,111.659l-2.253,0.457l-0.26,0.686l0.607,0.762l2.166-0.99L692.87,111.659"/>
<path fill="#DE2E15" d="M690.964,113.563l-0.347,0.229l4.766,7.846h0.26l-1.82-6.703l-1.127,0.686L690.964,113.563"/>
<path fill="#281F0C" d="M695.383,121.637l0.52,0.914l-0.26-0.914H695.383"/>
<path fill="#0E1309" d="M693.13,112.573l-2.166,0.99l1.733,2.057l1.127-0.686L693.13,112.573"/>
<path fill="none" d="M674.672,129.401h22.704v-20.182h-22.704V129.401"/>
<path fill="#221028" d="M702.749,107.393l-6.239,0.762L702.749,107.393 M702.402,105.565l0.173,0.838L702.402,105.565
	 M700.409,93.225l-16.118,2.057l0.087,0.609l-0.087-0.609L700.409,93.225"/>
<path fill="#6B3682" d="M700.409,93.225l-16.118,2.057l0.087,0.609l0.173,1.143c0.607-0.305,1.3-0.609,1.906-0.838l2.253-0.152
	l0.26,4.037l5.546,1.676l-1.906,4.799l1.56-0.99l2.253,2.59l6.239-0.762l-0.173-0.99l-0.173-0.838l-3.986-1.219l2.686-6.703
	L700.409,93.225"/>
<path fill="#65331A" d="M701.103,97.643l-2.6,6.703l3.9,1.219L701.103,97.643"/>
<path fill="#19254A" d="M694.343,105.565l-1.56,1.066l-0.867,2.133l4.593-0.609L694.343,105.565"/>
<path fill="none" d="M684.291,109.45h18.458V93.225h-18.458V109.45"/>
<path fill="#410D28" d="M680.652,136.567l1.3,0.457L680.652,136.567"/>
<path fill="#CC267D" d="M680.652,136.567l-0.78,0.457l1.733,3.504l-8.406,3.275l5.719,6.551l2.426-0.229l7.886-8.15l-5.806-4.342
	l0.173-0.152l-1.646-0.457L680.652,136.567"/>
<path fill="#AE1F24" d="M689.231,141.975l-7.886,8.15l6.066-0.762l2.686-6.703L689.231,141.975"/>
<path fill="#631D21" d="M683.598,137.481l-0.173,0.152l5.806,4.342l0.087-0.152l0.867,0.609l1.04-2.666L683.598,137.481"/>
<path fill="#530B0F" d="M689.317,141.823l-0.087,0.152l0.867,0.686l0.087-0.229L689.317,141.823"/>
<path fill="none" d="M669.3,154.086h21.924v-19.271H669.3V154.086"/>
<path fill="#0F3632" d="M693.13,169.226h1.82H693.13 M684.898,169.149h0.347H684.898 M682.385,161.446v1.464V161.446
	 M695.21,158.056v1.232V158.056 M690.357,157.902h0.26H690.357"/>
<path fill="#2EB29F" d="M689.664,157.902l0.433,2.619l-7.712,0.924v1.464l-0.087,5.161l2.426-0.231l0.173,1.31h2.686l2.253-2.388
	l3.293,2.465l1.82,0.077l0.173-7.241l-0.607-1.001l0.607-0.308v-1.464l0.087-1.232l-4.246,0.924l-0.347-1.078L689.664,157.902"/>
<path fill="#2D6232" d="M690.617,157.902l0.347,1.078l4.246-0.924v-0.077L690.617,157.902"/>
<path fill="#282720" d="M695.123,160.752l-0.607,0.308l0.607,1.001V160.752"/>
<path fill="none" d="M682.211,169.303h12.998v-11.478h-12.998V169.303"/>
<path fill="#031E34" d="M686.458,131.539l0.693,0.686l-6.499,4.342l6.499-4.342L686.458,131.539"/>
<path fill="#0B5FA5" d="M685.418,130.245l-6.326,1.371l-0.173-0.762l-1.993,0.229l2.6,5.18l1.127,0.305l6.499-4.342l-0.693-0.686
	L685.418,130.245"/>
<path fill="#104827" d="M683.165,127.655l0.433,2.59l-4.679,0.609l0.173,0.762l6.326-1.371L683.165,127.655"/>
<path fill="#192447" d="M679.525,136.262l0.347,0.762l0.78-0.457L679.525,136.262"/>
<path fill="none" d="M673.459,137.405h13.692V125.37h-13.692V137.405"/>
<path fill="#062C17" d="M682.385,163.303h-0.433H682.385"/>
<path fill="#0F9247" d="M680.825,152.639l2.773,3.199l-6.499,4.266l4.506,0.076v0.076l-0.087,3.123l0.433-0.076h0.433l0.087-3.58
	h0.087l7.106,0.076l-0.52-3.428l-3.466-2.59l-0.087,0.305L680.825,152.639"/>
<path fill="#0C140D" d="M688.104,149.287l-0.693,0.076l-1.733,4.418l3.466,2.59l-0.607-3.961l-0.693-2.437l0.347-0.076
	L688.104,149.287"/>
<path fill="#0E1008" d="M688.191,149.897l-0.347,0.076l0.693,2.437L688.191,149.897"/>
<path fill="#091724" d="M681.345,150.125l-2.426,0.229l1.906,2.285l4.766,1.447l0.087-0.305l-4.593-3.428L681.345,150.125"/>
<path fill="#080407" d="M687.411,149.363l-6.066,0.762l-0.26,0.229l4.593,3.428L687.411,149.363"/>
<path fill="#096535" d="M682.558,159.723h-0.087l-0.087,3.58l7.712-0.914l-0.433-2.59L682.558,159.723"/>
<path fill="none" d="M673.199,164.065h16.898v-14.777h-16.898V164.065"/>
<path fill="#062C17" d="M713.148,92.464l-5.026,0.914L713.148,92.464 M713.148,92.464l0.173,0.686L713.148,92.464"/>
<path fill="#0F9247" d="M713.148,92.464l-5.026,0.99l0.347,1.523l2.773,0.838l2.6-0.609l-0.52-1.98L713.148,92.464"/>
<path fill="#11512C" d="M713.841,95.206l-2.6,0.609l2.946,0.838L713.841,95.206"/>
<path fill="#1B853B" d="M708.468,94.977l0.347,1.295l2.426-0.457L708.468,94.977"/>
<path fill="#134927" d="M711.241,95.815l-2.426,0.457l0.347,1.6h0.087l5.026-0.914l-0.087-0.305L711.241,95.815"/>
<path fill="none" d="M708.122,97.872h6.153v-5.408h-6.153V97.872"/>
<path fill="#481210" d="M709.075,196.494l0.173,0.462l-3.38,0.77l3.38-0.77L709.075,196.494 M698.243,196.186
	c-0.867,1.387-1.646,2.696-2.513,3.697C696.596,198.882,697.376,197.573,698.243,196.186 M704.482,180.78
	c-0.347,1.31-0.693,2.619-1.127,4.006c0.087-0.308,0.173-0.539,0.26-0.77C703.962,182.86,704.222,181.859,704.482,180.78"/>
<path fill="#E63935" d="M703.616,183.938c-0.087,0.231-0.173,0.539-0.26,0.77l-0.52,1.387c-1.3,3.543-2.946,7.087-4.593,10.014
	c-0.867,1.387-1.646,2.696-2.513,3.697l10.139-2.234l3.38-0.77l-0.173-0.462l-0.173-0.77l-6.673-5.007l3.466-3.62l-2.773-0.847
	C703.096,185.479,703.356,184.709,703.616,183.938"/>
<path fill="#6E2A1A" d="M705.609,187.02l-3.38,3.62l6.673,5.084l-0.433-1.541l-1.906-6.856L705.609,187.02"/>
<path fill="none" d="M695.73,199.884h13.518V180.78H695.73V199.884"/>
<path fill="#062C17" d="M696.336,167.608l-1.213,3.158L696.336,167.608"/>
<path fill="#0F9247" d="M704.395,170.15l-1.473,0.693c1.127,0.231,1.82,1.232,2.08,2.619l1.04-2.773L704.395,170.15
	 M696.336,167.608l-1.213,3.158l2.166,1.618c-0.953,0.385-2.08,0.77-3.206,1.232c1.127-0.385,2.253-0.847,3.206-1.232
	c1.387-0.539,2.513-1.001,3.293-1.31l-1.646-2.696L696.336,167.608"/>
<path fill="#062C17" d="M709.855,180.78l-1.213,3.158L709.855,180.78 M704.655,180.164c-0.087,0.231-0.087,0.462-0.173,0.616
	C704.569,180.626,704.569,180.395,704.655,180.164 M711.068,177.622l-0.52,1.232L711.068,177.622"/>
<path fill="#0F9247" d="M705.262,175.85c-0.087,1.31-0.26,2.773-0.607,4.314c-0.087,0.231-0.087,0.462-0.173,0.616l0.26-0.077
	l1.56,5.623l2.253-2.388l1.213-3.158l-0.607-1.232l1.3-0.539l0.087-0.154l0.52-1.232L705.262,175.85"/>
<path fill="#042525" d="M710.548,179.008l-1.3,0.539l0.607,1.232L710.548,179.008"/>
<path fill="#0E6736" d="M708.642,183.938l-2.34,2.388l0.26,1.001l0.607,0.231L708.642,183.938"/>
<path fill="#1B853B" d="M706.129,170.689l-1.04,2.773c0.173,0.693,0.173,1.541,0.173,2.388l5.806,1.772l1.906-4.853L706.129,170.689
	"/>
<path fill="#0E2211" d="M698.936,168.455l1.646,2.696c0.347-0.154,0.607-0.231,0.693-0.231c0.347-0.077,0.693-0.077,0.953-0.077
	c0.26,0,0.52,0,0.693,0.077l1.473-0.693L698.936,168.455"/>
<path fill="#070D09" d="M704.482,180.78c-0.26,1.001-0.52,2.08-0.867,3.158C703.962,182.86,704.222,181.859,704.482,180.78"/>
<path fill="#0E2211" d="M704.742,180.78l-0.26,0.077c-0.26,1.001-0.52,2.08-0.867,3.158c-0.26,0.77-0.52,1.464-0.78,2.234
	l2.773,0.847l0.693-0.693L704.742,180.78"/>
<path fill="#0A190A" d="M706.302,186.326l-0.693,0.693l0.953,0.308L706.302,186.326"/>
<path fill="none" d="M693.997,187.559h18.978v-19.951h-18.978V187.559"/>
<path fill="#4E4721" d="M688.191,175.388l-2.34,0.462C686.631,175.773,687.411,175.619,688.191,175.388 M687.151,169.688
	l-1.906,1.926L687.151,169.688 M693.13,169.226l0.433,0.308L693.13,169.226"/>
<path fill="#F8E60C" d="M687.584,169.149l-0.52,0.539l-1.906,1.926l0.607,4.237c0.693-0.077,1.473-0.231,2.34-0.462
	c1.906-0.462,3.986-1.078,5.806-1.772l1.127-2.85l-1.56-1.155l-0.433-0.308L687.584,169.149"/>
<path fill="#30A139" d="M689.837,166.761l-2.253,2.388l5.546,0.077L689.837,166.761"/>
<path fill="#1B853B" d="M695.123,170.766l-1.127,2.85c1.127-0.385,2.253-0.847,3.206-1.232L695.123,170.766"/>
<path fill="#F8E60C" d="M685.244,177.623c-0.26,0-0.607,0.076-0.867,0.076C684.638,177.699,684.898,177.623,685.244,177.623"/>
<path fill="none" d="M681.605,176.004h15.685v-9.244h-15.685V176.004"/>
<path fill="#410D28" d="M676.752,176.328c1.3,1.066,3.206,1.295,5.546,1.371h1.473h-1.473
	C679.958,177.623,678.138,177.394,676.752,176.328"/>
<path fill="#CC267D" d="M684.378,177.699h-1.127H684.378 M682.298,169.854l-0.867,0.076l-0.087,5.484l-5.459-0.076
	c0.26,0.381,0.607,0.686,0.953,0.99c1.3,1.066,3.206,1.295,5.546,1.371l-0.693-0.533l3.64-3.732l-0.347-2.437l-2.6-0.076
	L682.298,169.854"/>
<path fill="#24234B" d="M684.724,169.625l-2.426,0.229l-0.087,0.99l2.686,0.076L684.724,169.625"/>
<path fill="#CC267D" d="M674.932,171.99"/>
<path fill="#410D28" d="M674.932,172.75c0,0.228,0,0.456,0.087,0.684c0.087,0.228,0.087,0.38,0.173,0.608
	c-0.087-0.152-0.173-0.38-0.173-0.608c0-0.076,0-0.152-0.087-0.228V172.75"/>
<path fill="#CC267D" d="M674.932,172.598v0.076c0,0.152,0,0.304,0.087,0.532C674.932,173.053,674.932,172.826,674.932,172.598"/>
<path fill="#410D28" d="M685.851,177.547c-0.173,0-0.26,0.076-0.433,0.076h-0.173C685.504,177.623,685.678,177.547,685.851,177.547"
	/>
<path fill="#CC267D" d="M685.418,177.623h-0.26H685.418"/>
<path fill="#3E1007" d="M682.298,177.699h0.867H682.298C682.385,177.699,682.298,177.699,682.298,177.699 M685.851,177.547
	c-0.173,0-0.26,0.076-0.433,0.076C685.591,177.547,685.764,177.547,685.851,177.547"/>
<path fill="#C4281F" d="M685.244,173.357l-3.64,3.732l0.693,0.533h1.993c0.26,0,0.607,0,0.867-0.076h0.26
	c0.173,0,0.26,0,0.433-0.076L685.244,173.357"/>
<path fill="none" d="M674.932,177.699h10.919v-8.074h-10.919V177.699"/>
<path fill="#4D3B1A" d="M668.953,159.988c-0.087,0.228-0.087,0.38-0.087,0.608C668.866,160.367,668.866,160.216,668.953,159.988"/>
<path fill="#F7BE20" d="M668.953,159.988c-0.087,0.228-0.087,0.38-0.087,0.608v0.304c0.087,0.38,0.26,0.684,0.52,0.912
	c-0.26-0.228-0.433-0.532-0.52-0.912C668.78,160.595,668.866,160.291,668.953,159.988"/>
<path fill="#4D3B1A" d="M681.431,169.625v0.381V169.625 M674.846,168.875c0.087,0.076,0.087,0.152,0.173,0.228
	c0.173,0.532,0.173,0.988,0.173,1.519c0-0.532,0-0.988-0.173-1.519C674.932,169.027,674.932,168.951,674.846,168.875
	 M672.506,163.102c0.173,0.152,0.26,0.304,0.347,0.456C672.766,163.33,672.592,163.178,672.506,163.102"/>
<path fill="#F7BE20" d="M674.846,161.627l-2.34,1.6c-0.173-0.152-0.347-0.229-0.52-0.305c0.173,0.076,0.433,0.152,0.52,0.305
	c0.173,0.152,0.26,0.305,0.347,0.457v0.076c0.26,0.838-1.646,1.98-1.473,2.742v0.076c0.347,1.143,2.86,1.828,3.466,2.437
	c0.087,0.076,0.087,0.152,0.173,0.229c0.173,0.533,0.173,0.99,0.173,1.523v0.152c0,0.381-0.087,0.838-0.173,1.219
	c0.087-0.457,0.087-0.914,0.173-1.371l6.326-0.762v-0.381l0.087-6.246l-6.326,0.762L674.846,161.627"/>
<path fill="#126C37" d="M677.099,160.104v0.076l-2.253,1.447l0.347,2.437l6.326-0.686l0.087-3.123v-0.076L677.099,160.104"/>
<path fill="#F7BE20" d="M674.932,172.522C674.932,172.598,674.932,172.598,674.932,172.522"/>
<path fill="#4D3B1A" d="M675.192,174.041c0.173,0.38,0.26,0.684,0.433,0.912c-0.173-0.228-0.26-0.532-0.433-0.836
	C675.279,174.117,675.279,174.041,675.192,174.041"/>
<path fill="#F7BE20" d="M675.279,174.117c0.087,0.304,0.26,0.532,0.433,0.836c0.087,0.076,0.087,0.152,0.173,0.228
	C675.625,174.877,675.452,174.573,675.279,174.117"/>
<path fill="#3E0E08" d="M675.019,173.205c0,0.076,0,0.152,0.087,0.228c0.087,0.228,0.087,0.38,0.173,0.608
	c0,0.076,0,0.076,0.087,0.152l-0.26-0.684C675.019,173.357,675.019,173.281,675.019,173.205"/>
<path fill="#C31F20" d="M681.431,170.006l-6.326,0.762c0,0.457-0.087,0.914-0.173,1.371v0.686c0,0.229,0,0.381,0.087,0.609
	c0,0.076,0,0.152,0.087,0.229l0.26,0.686c0.173,0.381,0.347,0.762,0.607,1.066l5.459,0.076V170.006"/>
<path fill="none" d="M668.866,175.49h12.739v-15.463h-12.739V175.49"/>
<path fill="#4D3B1A" d="M665.92,146.542c-1.213,1.975-2.6,3.342-3.38,4.786c-0.607,4.558,5.893,3.494,7.366,5.773
	c0.433,0.684-0.607,1.823-0.953,2.811c0.433-1.063,1.386-2.203,0.953-2.811c-1.56-2.279-7.972-1.215-7.366-5.773
	C663.32,149.884,664.707,148.441,665.92,146.542"/>
<path fill="#F7BE20" d="M671.119,144.491l-5.199,1.975c-1.213,1.975-2.6,3.342-3.38,4.786c-0.607,4.558,5.893,3.494,7.366,5.773
	c0.433,0.684-0.607,1.823-0.953,2.811h0.087l5.546,0.076l-1.386-9.04l1.733-0.228l-5.633-1.671L671.119,144.491"/>
<path fill="#C31F20" d="M673.199,143.803l-2.08,0.762l-1.82,4.57l5.633,1.676l3.986-0.457L673.199,143.803"/>
<path fill="#126C37" d="M674.932,150.811l-1.733,0.229l1.387,9.064h2.513l6.499-4.266l-2.773-3.199L674.932,150.811"/>
<path fill="#0E1309" d="M678.918,150.354l-3.986,0.457l5.893,1.828L678.918,150.354"/>
<path fill="#4D3B1A" d="M670.253,162.267c0.433,0.152,0.953,0.304,1.387,0.456C671.206,162.57,670.773,162.494,670.253,162.267"/>
<path fill="#F7BE20" d="M669.386,161.735c0.26,0.228,0.607,0.456,0.953,0.532c0.433,0.152,0.953,0.304,1.387,0.456
	c0.087,0,0.173,0.076,0.26,0.076C671.119,162.494,669.993,162.343,669.386,161.735"/>
<path fill="#4A2C13" d="M668.953,159.912"/>
<path fill="#EE8D03" d="M669.04,159.912c-0.087,0-0.087,0.076-0.087,0.076c-0.087,0.304-0.173,0.608-0.087,0.836
	c0.087,0.38,0.26,0.684,0.52,0.912c0.693,0.684,1.733,0.76,2.6,1.063c0.173,0.076,0.433,0.152,0.52,0.304l2.34-1.595l-0.26-1.519
	L669.04,159.912"/>
<path fill="#14502B" d="M674.586,159.988l0.26,1.519l2.253-1.443v-0.076H674.586"/>
<path fill="none" d="M662.54,163.227h21.058v-24.299H662.54V163.227"/>
<path fill="#4B2B13" d="M668.26,138.794v0.608c-0.26,3.115-1.213,5.317-2.253,7.141c0.433-0.76,0.867-1.595,1.3-2.507
	c0.347-0.912,0.607-1.823,0.78-2.963c0.087-0.532,0.173-1.063,0.173-1.595V138.794 M667.046,129.906
	c0.173,0.76,0.347,1.595,0.52,2.355c0.347,1.519,0.693,2.963,0.693,4.406c-0.087-1.443-0.433-2.963-0.693-4.406
	c-0.087-0.304-0.173-0.608-0.173-0.912C667.22,130.893,667.133,130.362,667.046,129.906"/>
<path fill="#F18D24" d="M668,140.997c-0.173,1.139-0.433,2.051-0.78,2.963C667.566,143.124,667.826,142.136,668,140.997
	 M674.152,131.463l-6.673,0.838c0.347,1.523,0.693,2.971,0.693,4.418v2.742l0.867-0.533l2.946,3.428l2.946-7.465l2.86,0.914
	L674.152,131.463 M666.873,128.994v0.152c0,0.228,0.087,0.532,0.087,0.76c0.087,0.456,0.173,0.988,0.26,1.443
	c-0.173-0.76-0.347-1.519-0.433-2.203L666.873,128.994"/>
<path fill="#BE1B21" d="M674.932,134.815l-2.946,7.541l1.213,1.447l8.406-3.275l-1.733-3.504l-0.52,0.381l-1.473-1.676
	L674.932,134.815"/>
<path fill="#0D351C" d="M676.925,131.082l-2.773,0.381l3.726,4.266l1.646,0.533L676.925,131.082"/>
<path fill="#08080B" d="M677.879,135.729l1.473,1.676l0.52-0.381l-0.347-0.762L677.879,135.729"/>
<path fill="#47210F" d="M667.22,143.959c-0.347,0.988-0.78,1.823-1.3,2.507C666.44,145.782,666.873,144.947,667.22,143.959
	 M668.173,139.401c0,0.532-0.087,1.139-0.173,1.595C668.086,140.465,668.173,139.933,668.173,139.401"/>
<path fill="#E96905" d="M669.04,138.87l-0.867,0.532c0,0.532-0.087,1.139-0.173,1.595c-0.173,1.139-0.433,2.051-0.78,2.963
	c-0.347,0.988-0.78,1.823-1.3,2.507l5.199-1.975l0.867-2.203L669.04,138.87"/>
<path fill="#B71D23" d="M671.986,142.288l-0.867,2.203l2.08-0.76L671.986,142.288"/>
<path fill="none" d="M665.92,146.621h15.685v-20.566H665.92V146.621"/>
<path fill="#28371B" d="M667.826,116.08c-0.26,0.76-0.433,1.595-0.607,2.431C667.393,117.676,667.653,116.916,667.826,116.08"/>
<path fill="#7DB641" d="M667.826,116.077c-0.26,0.762-0.433,1.6-0.607,2.437c-0.693,3.275-0.867,6.779-0.347,10.512l7.539-2.895
	l1.473,2.895l2.166-1.447l-2.513-9.141L667.826,116.077"/>
<path fill="#78882F" d="M675.452,118.438l2.513,9.141l3.293-2.209l1.906,2.285l-1.213-7.236L675.452,118.438"/>
<path fill="#0A452C" d="M677.965,127.579l-2.08,1.371l1.04,2.133l1.993-0.229L677.965,127.579"/>
<path fill="#123219" d="M681.258,125.37l-3.293,2.209l0.953,3.275l4.68-0.609l-0.433-2.59L681.258,125.37"/>
<path fill="#26210C" d="M667.306,131.349c0.087,0.304,0.173,0.608,0.173,0.912C667.48,131.957,667.393,131.653,667.306,131.349"/>
<path fill="#736429" d="M674.412,126.032l-7.539,2.887v0.152c0.087,0.76,0.26,1.443,0.433,2.203
	c0.087,0.304,0.173,0.608,0.173,0.912l6.673-0.836l-0.78-0.836l2.426-1.595L674.412,126.032"/>
<path fill="#0E2812" d="M675.885,128.918l-2.426,1.595l0.693,0.912l2.773-0.38L675.885,128.918"/>
<path fill="#28371B" d="M669.3,112.054c-0.433,0.988-0.78,1.975-1.127,3.039c0.26-0.836,0.52-1.595,0.867-2.355
	C669.126,112.434,669.213,112.206,669.3,112.054"/>
<path fill="#7DB641" d="M669.3,112.054c-0.087,0.228-0.173,0.456-0.26,0.608C669.126,112.434,669.213,112.206,669.3,112.054"/>
<path fill="none" d="M666.613,132.301h16.985v-21.709h-16.985V132.301"/>
<path fill="#0F3632" d="M684.551,97.11c-0.52,0.229-1.04,0.533-1.56,0.762C683.511,97.567,684.031,97.339,684.551,97.11"/>
<path fill="#2EB29F" d="M684.551,97.11c-0.52,0.305-1.04,0.533-1.56,0.762c0,0-0.087,0-0.087,0.076v0.381l1.906,0.609L684.551,97.11
	"/>
<path fill="#16274E" d="M688.797,96.12l-2.253,0.152c-0.693,0.305-1.3,0.533-1.906,0.838l0.26,1.752l4.246,1.295L688.797,96.12"/>
<path fill="none" d="M682.905,101.68h6.239v-5.56h-6.239V101.68"/>
<path fill="#460D0F" d="M675.539,102.863c-0.173,0.152-0.347,0.38-0.607,0.608C675.106,103.243,675.365,103.015,675.539,102.863"/>
<path fill="#DD2429" d="M682.905,97.872c-0.173,0.076-0.26,0.152-0.433,0.229c-1.906,0.99-3.726,2.133-5.373,3.352
	c-0.52,0.381-1.04,0.838-1.56,1.371c-0.173,0.152-0.347,0.381-0.607,0.609c-1.993,2.057-4.073,5.027-5.633,8.607l11.005-1.371
	l0.607,3.58l8.926-1.904l-2.08-2.361l1.127-0.762l-2.34,0.305l-1.3-7.922l-2.08,0.152l-0.26-3.428L682.905,97.872"/>
<path fill="#0A0F1A" d="M691.917,108.764l-2.946,0.381l-1.127,0.762l1.993,2.361l0.78-0.152L691.917,108.764"/>
<path fill="#D41D1A" d="M689.837,112.268l-8.926,1.904l1.04,6.246l4.853,1.447l3.553-9.064L689.837,112.268"/>
<path fill="#0B0C07" d="M690.617,112.116l-0.78,0.152l0.52,0.533L690.617,112.116"/>
<path fill="#5B0E15" d="M689.057,100.081l0.087,1.219l-3.813,0.229l1.3,7.922l2.34-0.305l3.813-2.514l1.906-4.799L689.057,100.081"
	/>
<path fill="#05050E" d="M692.783,106.632l-3.813,2.514l2.946-0.381L692.783,106.632"/>
<path fill="#460D0F" d="M668.173,115.017c-0.087,0.38-0.26,0.684-0.347,1.063C668,115.701,668.086,115.397,668.173,115.017"/>
<path fill="#230B07" d="M669.04,112.662c-0.347,0.76-0.607,1.519-0.867,2.355c-0.087,0.38-0.26,0.684-0.347,1.063
	C668.173,114.941,668.606,113.726,669.04,112.662"/>
<path fill="#6A1B18" d="M680.305,110.592l-11.005,1.371c-0.087,0.229-0.173,0.457-0.26,0.609c-0.433,1.066-0.867,2.209-1.213,3.428
	l7.626,2.285l-0.78-2.818l6.239-1.371L680.305,110.592"/>
<path fill="#671616" d="M680.911,114.172l-6.239,1.371l0.78,2.895l6.499,1.98L680.911,114.172"/>
<path fill="#28191A" d="M682.905,97.872l0.087,0.381l0.26,3.428l2.08-0.152l-0.433-2.666l-1.906-0.609L682.905,97.872"/>
<path fill="#11080E" d="M684.898,98.862l0.433,2.666l3.813-0.229l-0.087-1.219L684.898,98.862"/>
<path fill="none" d="M667.826,121.866h26.864V97.872h-26.864V121.866"/>
</svg>
