<?xml version="1.0" encoding="utf-8"?>
<!-- Generator: Adobe Illustrator 26.0.3, SVG Export Plug-In . SVG Version: 6.00 Build 0)  -->
<svg version="1.1" id="圖層_1" xmlns="http://www.w3.org/2000/svg" xmlns:xlink="http://www.w3.org/1999/xlink" x="0px" y="0px"
	 viewBox="0 0 16 16" style="enable-background:new 0 0 16 16;" xml:space="preserve">
<style type="text/css">
	.st0{fill:#80B3D9;}
	.st1{fill:#A0D2E7;}
	.st2{fill:#201F1E;}
	.st3{fill:#EBC8B1;}
	.st4{fill:#E45827;}
	.st5{fill:#4D4D4D;}
	.st6{fill:#3DAB4A;}
	.st7{fill:#449F37;}
	.st8{fill:#886138;}
	.st9{fill:#E62C2C;}
	.st10{fill:#040000;}
	.st11{font-family:'TimesNewRomanPS-BoldMT';}
	.st12{font-size:1.9548px;}
</style>
<g>
	<g>
		<path class="st0" d="M0.7,1.5h14.6v10H0.7V1.5z"/>
		<path class="st1" d="M6.9,12.5l-0.6,2.2H5.8c-0.1,0-0.2,0-0.3,0.1c-0.1,0.1-0.2,0.2-0.2,0.4l0,0c0,0.3,0.2,0.5,0.5,0.5h4.5
			c0.3,0,0.5-0.2,0.5-0.5l0,0c0-0.2-0.1-0.3-0.2-0.4c-0.1,0-0.2-0.1-0.3-0.1H9.6l-0.5-2.2H6.9z"/>
		<path class="st2" d="M15.8,11.2L15.8,11.2H0.2l0,0l0,0v0.7c0,0.4,0.3,0.7,0.6,0.7h14.3c0.4,0,0.6-0.3,0.6-0.7L15.8,11.2L15.8,11.2
			z"/>
		<path class="st3" d="M15.2,0.9H0.9c-0.4,0-0.6,0.3-0.6,0.7v9.7h15.6l0,0V1.6C15.8,1.2,15.5,0.9,15.2,0.9z M15.1,10.3v0.2H1V1.8
			h14.1V10.3z"/>
	</g>
	<g>
		<path class="st4" d="M3.8,1.9C3.7,1.9,3.6,2,3.6,2v0.2l0,0H2.1c0,0.1,0,0.2,0.1,0.3l1.5,0.1c0,0.1-0.1,0.2-0.1,0.3L2.3,2.8
			C2.4,2.9,2.5,3,2.6,3.1h0.5C3,3.2,2.9,3.3,2.7,3.4C2.5,3.6,2.2,3.7,2.1,3.9C1.9,4.1,1.8,4.3,1.8,4.4s0,0.2,0,0.3l0,0l0,0l0,0
			c0,0.3,0.1,0.6,0.4,0.9c0,0.2,0.1,0.4,0.3,0.5C2.6,6,2.7,6,2.7,5.9l0,0C2.6,5.8,2.5,5.7,2.4,5.6h0.7c0.1-0.1,0.2-0.2,0.3-0.3
			l-1.2,0C2.1,5.2,2,5.1,2,4.9L3.6,5V4.9c0-0.1,0-0.1,0-0.2L2,4.6c0-0.1,0-0.1,0-0.2s0.1-0.1,0.1-0.2l1.2,0.1C3.3,4.2,3.2,4.1,3,4
			H2.4c0.1-0.1,0.3-0.2,0.4-0.3C3,3.5,3.3,3.4,3.5,3.2c0,0,0,0,0.1-0.1l0,0c0.2-0.2,0.3-0.5,0.3-0.8V2.1C3.9,2,3.8,1.9,3.8,1.9z"/>
		<path class="st5" d="M3.7,6.7L3.7,6.7C3.5,6.5,3.4,6.4,3.2,6.2C3.1,6.3,3.1,6.3,3,6.4l0,0c0.1,0.1,0.2,0.2,0.3,0.2H2.7
			C2.5,6.7,2.4,6.8,2.3,6.9L3.6,7c0.1,0.1,0.1,0.2,0.2,0.4L2.2,7.3c0,0,0,0.1,0,0.2s0,0.1,0,0.1l1.5,0.1v0.1c0,0.1-0.1,0.2-0.1,0.3
			L2.3,8c0.1,0.1,0.2,0.2,0.3,0.3h0.6c0,0.1-0.2,0.2-0.4,0.3C2.6,8.8,2.3,9,2.1,9.2S1.8,9.7,1.8,10v0.2c0,0.1,0.1,0.2,0.1,0.2
			C2,10.4,2,10.3,2,10.3v-0.2l1.6,0.1l0,0c0-0.1,0-0.2,0-0.3L2.1,9.8c0-0.1,0.1-0.2,0.1-0.3l1.2,0.1C3.3,9.4,3.2,9.3,3.1,9.2H2.6
			C2.7,9.1,2.8,9,3,8.9c0.2-0.2,0.5-0.3,0.7-0.5C3.8,8.2,3.9,8,4,7.8c0-0.1,0-0.2,0-0.2l0,0l0,0l0,0C4,7.2,3.9,7,3.7,6.7L3.7,6.7z"
			/>
		<path class="st6" d="M3.2,3.6C3.1,3.7,3,3.7,3,3.8l0,0c0.4,0.3,0.7,0.6,0.8,1.1c0,0.6-0.4,0.8-0.9,1.1C2.5,6.2,2.3,6.3,2.1,6.5
			C1.9,6.8,1.8,7.1,1.8,7.4S1.9,8,2.2,8.3c0.1,0.1,0.3,0.3,0.4,0.4c0.1-0.1,0.2-0.1,0.2-0.1l0,0C2.4,8.2,2.1,7.9,2,7.4
			c0-0.6,0.4-0.8,0.9-1.1C3.2,6.1,3.4,6,3.6,5.8C3.9,5.5,4,5.2,4,4.9C4,4.6,3.9,4.3,3.6,4C3.5,3.9,3.3,3.7,3.2,3.6z"/>
		<path class="st7" d="M3.3,8.9C3.2,8.9,3.1,9,3,9l0,0c0.4,0.3,0.7,0.6,0.8,1.1v0.2c0,0.1,0.1,0.2,0.1,0.2C4,10.5,4,10.4,4,10.4
			v-0.2c0-0.3-0.1-0.6-0.4-0.9C3.6,9.1,3.4,9,3.3,8.9z"/>
		<path class="st6" d="M2.5,3.5c0.1-0.1,0.2-0.1,0.2-0.1l0,0C2.3,3,2,2.7,2,2.2V2c0-0.1-0.1-0.2-0.1-0.2C1.7,1.8,1.7,1.9,1.7,2v0.2
			c0,0.3,0.1,0.6,0.4,0.9C2.2,3.2,2.3,3.3,2.5,3.5z"/>
	</g>
	<g>
		<path class="st8" d="M13.8,1.9c-0.1,0-0.1,0.1-0.1,0.2v0.2l0,0l-1.6,0.1c0,0.1,0,0.2,0.1,0.3l1.5-0.1c0,0.1-0.1,0.2-0.1,0.3
			L12.4,3c0.1,0.1,0.2,0.2,0.4,0.3h0.5c-0.1,0.1-0.3,0.2-0.4,0.3c-0.2,0.2-0.5,0.4-0.6,0.6s-0.2,0.3-0.2,0.5c0,0.1,0,0.2,0,0.3l0,0
			l0,0l0,0c0,0.3,0.2,0.6,0.4,0.9c0.1,0.1,0.3,0.2,0.4,0.3C13,6.1,13,6.1,13.1,6l0,0c-0.1,0-0.2-0.1-0.3-0.2h0.7
			c0.1-0.1,0.2-0.2,0.3-0.3l-1.3,0.1c-0.1-0.1-0.1-0.2-0.2-0.4l1.6-0.1V5c0-0.1,0-0.1,0-0.2l-1.5,0.1c0-0.1,0-0.1,0-0.2
			s0.1-0.1,0.1-0.2l1.2-0.1c-0.1-0.1-0.2-0.2-0.4-0.3h-0.6C12.8,4,13,3.9,13.1,3.7c0.2-0.2,0.5-0.4,0.6-0.6c0,0,0,0,0-0.1l0,0
			C13.9,2.9,14,2.6,14,2.3V2.1C13.9,2,13.8,1.9,13.8,1.9z"/>
		<path class="st9" d="M13.8,6.6C13.7,6.5,13.7,6.5,13.8,6.6c-0.2-0.2-0.4-0.3-0.5-0.4c-0.1,0.1-0.1,0.1-0.2,0.2l0,0
			c0.1,0.1,0.2,0.1,0.3,0.2h-0.6c-0.1,0.1-0.2,0.2-0.3,0.3l1.2-0.1c0.1,0.1,0.2,0.2,0.2,0.4l-1.5,0.1c0,0,0,0.1,0,0.2v0.1l1.5-0.1
			v0.1c0,0.1,0,0.2-0.1,0.3L12.5,8c0.1,0.1,0.2,0.2,0.3,0.3h0.6c-0.1,0.1-0.3,0.3-0.4,0.4c-0.2,0.2-0.5,0.4-0.6,0.6
			c-0.2,0.3-0.3,0.6-0.2,0.9v0.2c0,0.1,0.1,0.1,0.2,0.1c0.1,0,0.1-0.1,0.1-0.2v-0.2l1.6-0.1l0,0c0-0.1,0-0.2-0.1-0.3l-1.5,0.1
			c0-0.1,0.1-0.2,0.1-0.3l1.2-0.1c-0.1-0.1-0.2-0.2-0.4-0.3h-0.5C13,9,13.1,8.9,13.3,8.8c0.2-0.2,0.5-0.4,0.6-0.6
			C14,8,14.1,7.8,14.1,7.6c0-0.1,0-0.2,0-0.2l0,0l0,0l0,0C14.1,7,14,6.8,13.8,6.6L13.8,6.6z"/>
	</g>
	<text transform="matrix(0.9627 0 0 1 4.1172 5.7427)" class="st10 st11 st12">MajorBio</text>
	<text transform="matrix(0.9627 0 0 1 5.5615 8.0425)" class="st10 st11 st12">Cloud</text>
</g>
</svg>
