<?xml version="1.0" standalone="no"?>
<!DOCTYPE svg PUBLIC "-//W3C//DTD SVG 20010904//EN"
 "http://www.w3.org/TR/2001/REC-SVG-20010904/DTD/svg10.dtd">
<svg version="1.0" xmlns="http://www.w3.org/2000/svg"
 width="43.000000pt" height="44.000000pt" viewBox="0 0 43.000000 44.000000"
 preserveAspectRatio="xMidYMid meet">

<g transform="translate(0.000000,44.000000) scale(0.100000,-0.100000)"
fill="#000000" stroke="none">
<path d="M103 429 c-37 -11 -46 -24 -79 -122 -29 -87 -29 -87 0 -87 30 0 35 7
76 105 19 44 41 88 49 98 17 20 7 21 -46 6z"/>
<path d="M273 429 c-18 -5 -38 -19 -44 -30 -13 -25 -59 -158 -59 -171 0 -5 14
-8 31 -6 27 3 33 10 59 73 17 39 38 87 49 108 21 40 19 42 -36 26z"/>
<path d="M393 208 c-6 -7 -29 -53 -52 -103 -23 -49 -48 -93 -54 -98 -7 -5 4
-6 27 -3 21 3 47 13 57 22 21 19 59 125 59 166 0 30 -20 38 -37 16z"/>
<path d="M141 48 c-8 -18 -19 -36 -25 -40 -13 -9 26 -11 48 -2 11 4 13 10 7
18 -5 6 -11 21 -13 34 -3 21 -4 20 -17 -10z"/>
</g>
</svg>
