<?xml version="1.0" encoding="utf-8"?><svg xml:space="preserve" viewBox="0 0 100 100" y="0" x="0" xmlns="http://www.w3.org/2000/svg" id="圖層_1" version="1.1" width="200px" height="200px" xmlns:xlink="http://www.w3.org/1999/xlink" style="width:100%;height:100%;background-size:initial;background-repeat-y:initial;background-repeat-x:initial;background-position-y:initial;background-position-x:initial;background-origin:initial;background-image:initial;background-color:rgb(241, 242, 243);background-clip:initial;background-attachment:initial;animation-play-state:paused" ><g class="ldl-scale" style="transform-origin:50% 50%;transform:rotate(0deg) scale(0.8, 0.8);animation-play-state:paused" ><ellipse fill="#e0e0e0" ry="6.27" rx="8.593" cy="29.869" cx="38.77" transform="rotate(-79.129 38.768 29.868)" style="fill:rgb(25, 70, 69);animation-play-state:paused" ></ellipse>
<ellipse fill="#e0e0e0" ry="8.593" rx="6.27" cy="29.869" cx="61.23" transform="rotate(-10.865 61.24 29.872)" style="fill:rgb(25, 70, 69);animation-play-state:paused" ></ellipse>
<path fill="#c69c6d" d="M60.27 42.174A23.131 23.131 0 0 0 50 39.777c-3.704 0-7.189.875-10.27 2.397C32.473 45.759 27.5 53.005 27.5 61.38v14.467c0 2.984 2.52 5.403 5.628 5.403h33.745c3.108 0 5.628-2.419 5.628-5.403V61.38c-.001-8.375-4.974-15.621-12.231-19.206z" style="fill:rgb(226, 187, 139);animation-play-state:paused" ></path>
<circle fill="#c7b299" r="14.513" cy="33.263" cx="50" style="fill:rgb(228, 147, 75);animation-play-state:paused" ></circle>
<path fill="#e0e0e0" d="M41.899 41.656c.606.972 1.877 1.331 2.957.951 1.422-.501 3.204-.8 5.144-.8s3.722.299 5.144.8c1.08.381 2.351.021 2.957-.951.206-.33.316-.677.316-1.037 0-2.111-3.768-3.823-8.417-3.823s-8.417 1.712-8.417 3.823c0 .359.111.707.316 1.037z" style="fill:rgb(25, 70, 69);animation-play-state:paused" ></path>
<path stroke-miterlimit="10" stroke="#754c24" fill="none" d="M40.729 31.629l.139 1.246a1.55 1.55 0 0 0 1.541 1.379h3.808c.79 0 1.453-.594 1.541-1.379l.139-1.246" style="stroke:rgb(225, 231, 231);animation-play-state:paused" ></path>
<path stroke-miterlimit="10" stroke="#754c24" fill="none" d="M47.896 31.629l.1-.904a1.55 1.55 0 0 0-1.541-1.721h-4.286a1.55 1.55 0 0 0-1.541 1.721l.1.904" style="stroke:rgb(225, 231, 231);animation-play-state:paused" ></path>
<path stroke-miterlimit="10" stroke="#754c24" fill="none" d="M58.896 31.629l.1-.904a1.55 1.55 0 0 0-1.541-1.721h-4.286a1.55 1.55 0 0 0-1.541 1.721l.1.904" style="stroke:rgb(225, 231, 231);animation-play-state:paused" ></path>
<path stroke-miterlimit="10" stroke="#754c24" fill="none" d="M51.729 31.629l.139 1.246a1.55 1.55 0 0 0 1.541 1.379h3.808c.79 0 1.453-.594 1.541-1.379l.139-1.246" style="stroke:rgb(225, 231, 231);animation-play-state:paused" ></path>
<path d="M62.812 31.629h-3.916" stroke-miterlimit="10" stroke="#754c24" fill="none" style="stroke:rgb(225, 231, 231);animation-play-state:paused" ></path>
<path d="M40.729 31.629h-3.542" stroke-miterlimit="10" stroke="#754c24" fill="none" style="stroke:rgb(225, 231, 231);animation-play-state:paused" ></path>
<path d="M51.729 31.629h-3.833" stroke-miterlimit="10" stroke="#754c24" fill="none" style="stroke:rgb(225, 231, 231);animation-play-state:paused" ></path>
<metadata xmlns:d="https://loading.io/stock/" style="animation-play-state:paused" ><d:name style="animation-play-state:paused" >scientist</d:name>
<d:tags style="animation-play-state:paused" >einstein,professor,researcher,wise,genius,scientist,people</d:tags>
<d:license style="animation-play-state:paused" >pro</d:license>
<d:slug style="animation-play-state:paused" >up8j8p</d:slug></metadata></g><!-- generated by https://loading.io/ --></svg>