<?xml version="1.0" encoding="utf-8"?><svg xml:space="preserve" viewBox="0 0 100 100" y="0" x="0" xmlns="http://www.w3.org/2000/svg" id="圖層_1" version="1.1" width="43px" height="43px" xmlns:xlink="http://www.w3.org/1999/xlink" style="width:100%;height:100%;background-size:initial;background-repeat-y:initial;background-repeat-x:initial;background-position-y:initial;background-position-x:initial;background-origin:initial;background-color:initial;background-clip:initial;background-attachment:initial;animation-play-state:paused" ><g class="ldl-scale" style="transform-origin:50% 50%;transform:rotate(0deg) scale(1, 1);animation-play-state:paused" ><path fill="#c69c6d" d="M60.27 42.174A23.131 23.131 0 0 0 50 39.777c-3.704 0-7.189.875-10.27 2.397C32.473 45.759 27.5 53.005 27.5 61.38v14.467c0 2.984 2.52 5.403 5.628 5.403h33.745c3.108 0 5.628-2.419 5.628-5.403V61.38c-.001-8.375-4.974-15.621-12.231-19.206z" style="fill:rgb(94, 111, 163);animation-play-state:paused" ></path>
<path stroke-miterlimit="10" stroke="#231815" fill="#f8b26a" d="M52.046 50.776h-4.093l-1.645-4.082a1.292 1.292 0 0 1 1.199-1.775h4.984c.916 0 1.541.926 1.199 1.775l-1.644 4.082z" style="stroke:rgb(179, 183, 226);fill:rgb(147, 219, 233);animation-play-state:paused" ></path>
<path stroke-miterlimit="10" stroke="#231815" fill="#f8b26a" d="M53.964 72.068l-2.451 2.686c-.812.89-2.214.89-3.026 0l-2.451-2.686a2.051 2.051 0 0 1-.521-1.627l2.35-19.471h4.27l2.35 19.471a2.049 2.049 0 0 1-.521 1.627z" style="stroke:rgb(179, 183, 226);fill:rgb(147, 219, 233);animation-play-state:paused" ></path>
<circle fill="#c7b299" r="14.513" cy="33.263" cx="50" style="fill:rgb(104, 156, 197);animation-play-state:paused" ></circle>
<path d="M40.729 31.629h-3.542" stroke-miterlimit="10" stroke="#754c24" fill="none" style="stroke:rgb(25, 29, 58);animation-play-state:paused" ></path>
<path stroke-miterlimit="10" stroke="#754c24" fill="none" d="M40.729 31.629l.139 1.246a1.55 1.55 0 0 0 1.541 1.379h3.808c.79 0 1.453-.594 1.541-1.379l.139-1.246" style="stroke:rgb(25, 29, 58);animation-play-state:paused" ></path>
<path stroke-miterlimit="10" stroke="#754c24" fill="none" d="M47.896 31.629l.1-.904a1.55 1.55 0 0 0-1.541-1.721h-4.286a1.55 1.55 0 0 0-1.541 1.721l.1.904" style="stroke:rgb(25, 29, 58);animation-play-state:paused" ></path>
<path stroke-miterlimit="10" stroke="#754c24" fill="none" d="M58.896 31.629l.1-.904a1.55 1.55 0 0 0-1.541-1.721h-4.286a1.55 1.55 0 0 0-1.541 1.721l.1.904" style="stroke:rgb(25, 29, 58);animation-play-state:paused" ></path>
<path stroke-miterlimit="10" stroke="#754c24" fill="none" d="M51.729 31.629l.139 1.246a1.55 1.55 0 0 0 1.541 1.379h3.808c.79 0 1.453-.594 1.541-1.379l.139-1.246" style="stroke:rgb(25, 29, 58);animation-play-state:paused" ></path>
<path d="M62.812 31.629h-3.916" stroke-miterlimit="10" stroke="#754c24" fill="none" style="stroke:rgb(25, 29, 58);animation-play-state:paused" ></path>
<path d="M51.729 31.629h-3.833" stroke-miterlimit="10" stroke="#754c24" fill="none" style="stroke:rgb(25, 29, 58);animation-play-state:paused" ></path>
<path fill="#333" d="M61.402 75.421H38.598a3.112 3.112 0 0 1-3.112-3.112V57.402a3.112 3.112 0 0 1 3.112-3.112h22.803a3.112 3.112 0 0 1 3.112 3.112v14.907a3.111 3.111 0 0 1-3.111 3.112z" style="fill:rgb(217, 219, 238);animation-play-state:paused" ></path>
<path fill="#666" d="M54 78.335V69.25a2.583 2.583 0 0 0-2.583-2.583h-2.833a2.583 2.583 0 0 0-2.583 2.583v9.085H35.487v2.915h29.027v-2.915H54z" style="fill:rgb(59, 67, 104);animation-play-state:paused" ></path>
<metadata xmlns:d="https://loading.io/stock/" style="animation-play-state:paused" ><d:name style="animation-play-state:paused" >software engineer</d:name>
<d:tags style="animation-play-state:paused" >developer,coder,coding,computer,mis,software engineer,people</d:tags>
<d:license style="animation-play-state:paused" >pro</d:license>
<d:slug style="animation-play-state:paused" >ucg3fh</d:slug></metadata></g><!-- generated by https://loading.io/ --></svg>