<?xml version="1.0" encoding="utf-8"?>
<!-- Generator: Adobe Illustrator 26.0.3, SVG Export Plug-In . SVG Version: 6.00 Build 0)  -->
<svg version="1.1" id="圖層_1" xmlns="http://www.w3.org/2000/svg" xmlns:xlink="http://www.w3.org/1999/xlink" x="0px" y="0px"
	 viewBox="0 0 16 16" style="enable-background:new 0 0 16 16;" xml:space="preserve">
<style type="text/css">
	.st0{fill:#5E6FA3;}
	.st1{stroke:#B3B7E2;stroke-width:0.16;stroke-miterlimit:1.6;}
	.st2{fill:#020202;stroke:#B3B7E2;stroke-width:0.16;stroke-miterlimit:1.6;}
	.st3{fill:#0C8BEA;}
	.st4{fill:none;stroke:#191D3A;stroke-width:0.16;stroke-miterlimit:1.6;}
	.st5{fill:#D9DBEE;}
	.st6{fill:#D82A43;}
</style>
<g>
	<path class="st0" d="M9.1,6.6C8.6,6.4,8,6.2,7.5,6.2c-0.6,0-1.2,0.1-1.7,0.3c-1.2,0.5-2,1.6-2,2.8v2.1c0,0.4,0.4,0.8,0.9,0.8h5.4
		c0.5,0,0.9-0.3,0.9-0.8V9.3C11.1,8.1,10.3,7.1,9.1,6.6z"/>
	<path class="st1" d="M7.8,7.8H7.1L6.9,7.2C6.8,7.1,6.9,7,7,7C7,7,7,7,7.1,7h0.8C8,7,8.1,7.1,8.1,7.2C8.1,7.2,7.8,7.8,7.8,7.8z"/>
	<path class="st2" d="M8.1,10.9l-0.4,0.4c-0.1,0.1-0.4,0.1-0.5,0l-0.4-0.4c-0.1-0.1-0.1-0.1-0.1-0.2l0.4-2.8h0.7l0.4,2.8
		C8.2,10.7,8.2,10.8,8.1,10.9z"/>
	<ellipse class="st3" cx="7.5" cy="5.3" rx="2.3" ry="2.1"/>
	<path class="st4" d="M6,5.1H5.4"/>
	<path class="st4" d="M6,5.1l0,0.2c0,0.1,0.1,0.2,0.2,0.2h0.6c0.1,0,0.2-0.1,0.2-0.2l0-0.2"/>
	<path class="st4" d="M7.1,5.1l0-0.1c0-0.1-0.1-0.2-0.2-0.2c0,0,0,0,0,0H6.2C6.1,4.7,6,4.8,6,4.9c0,0,0,0,0,0l0,0.1"/>
	<path class="st4" d="M8.9,5.1l0-0.1c0-0.1-0.1-0.2-0.2-0.2c0,0,0,0,0,0H8c-0.1,0-0.2,0.1-0.2,0.2c0,0,0,0,0,0l0,0.1"/>
	<path class="st4" d="M7.7,5.1l0,0.2c0,0.1,0.1,0.2,0.2,0.2h0.6c0.1,0,0.2-0.1,0.2-0.2l0-0.2"/>
	<path class="st4" d="M9.5,5.1H8.9"/>
	<path class="st4" d="M7.7,5.1H7.1"/>
	<path class="st5" d="M9.3,11.4H5.6c-0.3,0-0.5-0.2-0.5-0.4V8.8c0-0.2,0.2-0.4,0.5-0.4h3.7c0.3,0,0.5,0.2,0.5,0.4v2.1
		C9.8,11.2,9.6,11.4,9.3,11.4C9.3,11.4,9.3,11.4,9.3,11.4z"/>
	<path class="st6" d="M8.1,11.8v-1.3c0-0.2-0.2-0.4-0.4-0.4l0,0H7.2c-0.2,0-0.4,0.2-0.4,0.4l0,0v1.3H5.1v0.4h4.7v-0.4H8.1z"/>
</g>
</svg>
