<?xml version="1.0" encoding="utf-8"?>
<!-- Generator: Adobe Illustrator 26.0.3, SVG Export Plug-In . SVG Version: 6.00 Build 0)  -->
<svg version="1.1" id="圖層_1" xmlns="http://www.w3.org/2000/svg" xmlns:xlink="http://www.w3.org/1999/xlink" x="0px" y="0px"
	 viewBox="0 0 16 16" style="enable-background:new 0 0 16 16;" xml:space="preserve">
<style type="text/css">
	.st0{fill:#E2BB8B;}
	.st1{fill:#DF1317;stroke:#0A69AA;stroke-width:0.16;stroke-miterlimit:1.6;}
	.st2{fill:#E4934B;}
	.st3{fill:none;stroke:#91BCC6;stroke-width:0.16;stroke-miterlimit:1.6;}
	.st4{fill:#07ABCC;}
	.st5{fill:#E1E7E7;}
</style>
<g>
	<path class="st0" d="M10.5,6C9.8,5.7,8.9,5.4,8,5.4C7.1,5.4,6.2,5.7,5.5,6c-1.8,0.9-3,2.7-3,4.8v3.6c0,0.7,0.6,1.3,1.4,1.3h8.4
		c0.8,0,1.4-0.6,1.4-1.3v-3.6C13.6,8.8,12.3,6.9,10.5,6z"/>
	<path class="st1" d="M8.5,8.2h-1l-0.4-1C7,7,7.1,6.8,7.3,6.8c0,0,0.1,0,0.1,0h1.2C8.8,6.7,9,7,8.9,7.2C8.9,7.2,8.5,8.2,8.5,8.2z"/>
	<path class="st1" d="M9,13.5l-0.6,0.7c-0.2,0.2-0.5,0.2-0.7,0L7,13.5c-0.1-0.1-0.1-0.3-0.1-0.4l0.6-4.9h1.1l0.6,4.9
		C9.1,13.3,9.1,13.4,9,13.5z"/>
	<ellipse class="st2" cx="8" cy="3.8" rx="3.6" ry="3.6"/>
	<path class="st3" d="M5.7,3.4H4.8"/>
	<path class="st3" d="M5.7,3.4l0,0.3c0,0.2,0.2,0.3,0.4,0.3h0.9c0.2,0,0.4-0.1,0.4-0.3l0-0.3"/>
	<path class="st3" d="M7.5,3.4l0-0.2c0-0.2-0.1-0.4-0.3-0.4c0,0,0,0,0,0H6.1c-0.2,0-0.4,0.2-0.4,0.4c0,0,0,0,0,0l0,0.2"/>
	<path class="st3" d="M10.2,3.4l0-0.2c0-0.2-0.1-0.4-0.3-0.4c0,0,0,0,0,0H8.8c-0.2,0-0.4,0.2-0.4,0.4c0,0,0,0,0,0l0,0.2"/>
	<path class="st3" d="M8.4,3.4l0,0.3c0,0.2,0.2,0.3,0.4,0.3h0.9c0.2,0,0.4-0.1,0.4-0.3l0-0.3"/>
	<path class="st3" d="M11.2,3.4h-1"/>
	<path class="st3" d="M8.4,3.4H7.5"/>
	<path class="st4" d="M10.8,14.3H5.2c-0.4,0-0.8-0.3-0.8-0.8V9.8c0-0.4,0.3-0.8,0.8-0.8h5.6c0.4,0,0.8,0.3,0.8,0.8v3.7
		C11.6,14,11.2,14.3,10.8,14.3C10.8,14.3,10.8,14.3,10.8,14.3z"/>
	<path class="st5" d="M9,15.1v-2.3c0-0.4-0.3-0.6-0.6-0.6l0,0H7.6c-0.4,0-0.6,0.3-0.6,0.6l0,0v2.3H4.4v0.7h7.2v-0.7H9z"/>
</g>
</svg>
